Newsreader-TextExtraLightItalic.ufo
<glyph name="exclam" format="2">
  <advance width="478"/>
  <unicode hex="0021"/>
  <outline>
    <contour>
      <point x="555.0" y="1318.0" type="line" smooth="yes"/>
      <point x="562.0" y="1341.0"/>
      <point x="547.0" y="1350.0"/>
      <point x="517.0" y="1350.0" type="curve" smooth="yes"/>
      <point x="488.0" y="1350.0"/>
      <point x="476.0" y="1341.0"/>
      <point x="469.0" y="1318.0" type="curve" smooth="yes"/>
      <point x="463.0" y="1298.0" type="line" smooth="yes"/>
      <point x="453.0" y="1267.0"/>
      <point x="306.0" y="717.0"/>
      <point x="213.0" y="396.0" type="curve"/>
      <point x="245.0" y="396.0" type="line"/>
      <point x="348.0" y="717.0"/>
      <point x="541.0" y="1270.0"/>
      <point x="549.0" y="1298.0" type="curve" smooth="yes"/>
    </contour>
    <contour>
      <point x="146.0" y="145.0" type="curve" smooth="yes"/>
      <point x="92.0" y="145.0"/>
      <point x="52.0" y="101.0"/>
      <point x="52.0" y="47.0" type="curve" smooth="yes"/>
      <point x="52.0" y="11.0"/>
      <point x="75.0" y="-15.0"/>
      <point x="113.0" y="-15.0" type="curve" smooth="yes"/>
      <point x="167.0" y="-15.0"/>
      <point x="207.0" y="29.0"/>
      <point x="207.0" y="83.0" type="curve" smooth="yes"/>
      <point x="207.0" y="119.0"/>
      <point x="184.0" y="145.0"/>
    </contour>
  </outline>
</glyph>
<glyph name="quotesingle" format="2">
  <advance width="297"/>
  <unicode hex="0027"/>
  <outline>
    <contour>
      <point x="282.0" y="929.0" type="line"/>
      <point x="308.0" y="929.0" type="line"/>
      <point x="455.0" y="1300.0" type="line"/>
      <point x="467.0" y="1340.0" type="line"/>
      <point x="378.0" y="1340.0" type="line"/>
      <point x="365.0" y="1300.0" type="line"/>
    </contour>
  </outline>
</glyph>
<glyph name="parenleft" format="2">
  <advance width="497"/>
  <unicode hex="0028"/>
  <outline>
    <contour>
      <point x="731.0" y="1395.0" type="curve"/>
      <point x="708.0" y="1419.0" type="line"/>
      <point x="183.0" y="916.0"/>
      <point x="92.0" y="581.0"/>
      <point x="92.0" y="267.0" type="curve" smooth="yes"/>
      <point x="92.0" y="121.0"/>
      <point x="123.0" y="-51.0"/>
      <point x="193.0" y="-275.0" type="curve"/>
      <point x="226.0" y="-264.0" type="line"/>
      <point x="181.0" y="-104.0"/>
      <point x="157.0" y="47.0"/>
      <point x="157.0" y="193.0" type="curve" smooth="yes"/>
      <point x="157.0" y="627.0"/>
      <point x="357.0" y="1013.0"/>
    </contour>
  </outline>
</glyph>
<glyph name="comma" format="2">
  <advance width="318"/>
  <unicode hex="002C"/>
  <outline>
    <contour>
      <point x="-157.0" y="-265.0" type="curve"/>
      <point x="-142.0" y="-291.0" type="line"/>
      <point x="66.0" y="-159.0"/>
      <point x="145.0" y="-26.0"/>
      <point x="145.0" y="69.0" type="curve" smooth="yes"/>
      <point x="145.0" y="119.0"/>
      <point x="118.0" y="145.0"/>
      <point x="80.0" y="145.0" type="curve" smooth="yes"/>
      <point x="29.0" y="145.0"/>
      <point x="-2.0" y="104.0"/>
      <point x="-2.0" y="74.0" type="curve" smooth="yes"/>
      <point x="-2.0" y="46.0"/>
      <point x="53.0" y="40.0"/>
      <point x="53.0" y="-16.0" type="curve" smooth="yes"/>
      <point x="53.0" y="-76.0"/>
      <point x="8.0" y="-157.0"/>
    </contour>
  </outline>
</glyph>
<glyph name="slash" format="2">
  <advance width="771"/>
  <unicode hex="002F"/>
  <outline>
    <contour>
      <point x="-41.0" y="0.0" type="line"/>
      <point x="20.0" y="0.0" type="line"/>
      <point x="961.0" y="1340.0" type="line"/>
      <point x="900.0" y="1340.0" type="line"/>
    </contour>
  </outline>
</glyph>
<glyph name="semicolon" format="2">
  <advance width="456"/>
  <unicode hex="003B"/>
  <outline>
    <contour>
      <point x="-101.0" y="-265.0" type="curve"/>
      <point x="-86.0" y="-291.0" type="line"/>
      <point x="122.0" y="-159.0"/>
      <point x="201.0" y="-26.0"/>
      <point x="201.0" y="69.0" type="curve" smooth="yes"/>
      <point x="201.0" y="119.0"/>
      <point x="174.0" y="145.0"/>
      <point x="136.0" y="145.0" type="curve" smooth="yes"/>
      <point x="85.0" y="145.0"/>
      <point x="54.0" y="104.0"/>
      <point x="54.0" y="74.0" type="curve" smooth="yes"/>
      <point x="54.0" y="46.0"/>
      <point x="109.0" y="40.0"/>
      <point x="109.0" y="-16.0" type="curve" smooth="yes"/>
      <point x="109.0" y="-76.0"/>
      <point x="64.0" y="-157.0"/>
    </contour>
    <contour>
      <point x="359.0" y="863.0" type="curve" smooth="yes"/>
      <point x="305.0" y="863.0"/>
      <point x="265.0" y="819.0"/>
      <point x="265.0" y="765.0" type="curve" smooth="yes"/>
      <point x="265.0" y="729.0"/>
      <point x="288.0" y="703.0"/>
      <point x="326.0" y="703.0" type="curve" smooth="yes"/>
      <point x="380.0" y="703.0"/>
      <point x="420.0" y="747.0"/>
      <point x="420.0" y="801.0" type="curve" smooth="yes"/>
      <point x="420.0" y="837.0"/>
      <point x="397.0" y="863.0"/>
    </contour>
  </outline>
</glyph>
<glyph name="less" format="2">
  <advance width="1000"/>
  <unicode hex="003C"/>
  <guideline x="1088.0" y="892" angle="165.53644355972386" identifier="uCXcs5RcxK"/>
  <outline>
    <contour>
      <point x="93.0" y="420.0" type="line"/>
      <point x="1071.0" y="835.0" type="line"/>
      <point x="1088.0" y="892.0" type="line"/>
      <point x="54.0" y="453.0" type="line"/>
      <point x="43.0" y="417.0" type="line"/>
      <point x="810.0" y="-20.0" type="line"/>
      <point x="824.0" y="27.0" type="line"/>
      <point x="99.0" y="439.0" type="line"/>
    </contour>
  </outline>
</glyph>
<glyph name="at" format="2">
  <advance width="1806"/>
  <unicode hex="0040"/>
  <outline>
    <contour>
      <point x="1328.0" y="239.0" type="curve" smooth="yes"/>
      <point x="1239.0" y="239.0"/>
      <point x="1178.0" y="283.0"/>
      <point x="1178.0" y="388.0" type="curve" smooth="yes"/>
      <point x="1178.0" y="437.0"/>
      <point x="1189.0" y="500.0"/>
      <point x="1215.0" y="576.0" type="curve" smooth="yes"/>
      <point x="1358.0" y="999.0" type="line"/>
      <point x="1287.0" y="999.0" type="line"/>
      <point x="1261.0" y="924.0" type="line"/>
      <point x="1217.0" y="792.0" type="line" smooth="yes"/>
      <point x="1088.0" y="405.0"/>
      <point x="868.0" y="251.0"/>
      <point x="776.0" y="251.0" type="curve" smooth="yes"/>
      <point x="701.0" y="251.0"/>
      <point x="669.0" y="301.0"/>
      <point x="669.0" y="392.0" type="curve" smooth="yes"/>
      <point x="669.0" y="607.0"/>
      <point x="883.0" y="983.0"/>
      <point x="1101.0" y="983.0" type="curve" smooth="yes"/>
      <point x="1159.0" y="983.0"/>
      <point x="1211.0" y="966.0"/>
      <point x="1258.0" y="901.0" type="curve"/>
      <point x="1272.0" y="919.0" type="line"/>
      <point x="1228.0" y="986.0"/>
      <point x="1176.0" y="1016.0"/>
      <point x="1101.0" y="1016.0" type="curve" smooth="yes"/>
      <point x="862.0" y="1016.0"/>
      <point x="591.0" y="651.0"/>
      <point x="591.0" y="390.0" type="curve" smooth="yes"/>
      <point x="591.0" y="280.0"/>
      <point x="631.0" y="200.0"/>
      <point x="749.0" y="200.0" type="curve" smooth="yes"/>
      <point x="844.0" y="200.0"/>
      <point x="975.0" y="271.0"/>
      <point x="1151.0" y="563.0" type="curve"/>
      <point x="1143.0" y="563.0" type="line"/>
      <point x="1125.0" y="493.0" type="line" smooth="yes"/>
      <point x="1117.0" y="461.0"/>
      <point x="1113.0" y="429.0"/>
      <point x="1113.0" y="401.0" type="curve" smooth="yes"/>
      <point x="1113.0" y="282.0"/>
      <point x="1185.0" y="205.0"/>
      <point x="1319.0" y="205.0" type="curve" smooth="yes"/>
      <point x="1589.0" y="205.0"/>
      <point x="1801.0" y="463.0"/>
      <point x="1801.0" y="832.0" type="curve" smooth="yes"/>
      <point x="1801.0" y="1171.0"/>
      <point x="1561.0" y="1419.0"/>
      <point x="1151.0" y="1419.0" type="curve" smooth="yes"/>
      <point x="575.0" y="1419.0"/>
      <point x="122.0" y="971.0"/>
      <point x="122.0" y="394.0" type="curve" smooth="yes"/>
      <point x="122.0" y="-25.0"/>
      <point x="402.0" y="-255.0"/>
      <point x="839.0" y="-255.0" type="curve" smooth="yes"/>
      <point x="1067.0" y="-255.0"/>
      <point x="1302.0" y="-181.0"/>
      <point x="1496.0" y="-60.0" type="curve"/>
      <point x="1479.0" y="-29.0" type="line"/>
      <point x="1267.0" y="-154.0"/>
      <point x="1047.0" y="-210.0"/>
      <point x="840.0" y="-210.0" type="curve" smooth="yes"/>
      <point x="435.0" y="-210.0"/>
      <point x="193.0" y="11.0"/>
      <point x="193.0" y="397.0" type="curve" smooth="yes"/>
      <point x="193.0" y="940.0"/>
      <point x="585.0" y="1376.0"/>
      <point x="1151.0" y="1376.0" type="curve" smooth="yes"/>
      <point x="1513.0" y="1376.0"/>
      <point x="1745.0" y="1132.0"/>
      <point x="1745.0" y="809.0" type="curve" smooth="yes"/>
      <point x="1745.0" y="473.0"/>
      <point x="1557.0" y="239.0"/>
    </contour>
  </outline>
</glyph>
<glyph name="A" format="2">
  <advance width="1292"/>
  <unicode hex="0041"/>
  <guideline x="-203.0" y="50" angle="180.0" identifier="vo3XFWX3nJ"/>
  <anchor x="895.0" y="1340" name="UCtop"/>
  <anchor x="523.0" y="0" name="bottom"/>
  <anchor x="1172.0" y="0" name="right"/>
  <outline>
    <contour>
      <point x="409.0" y="555.0" type="line"/>
      <point x="952.0" y="555.0" type="line"/>
      <point x="966.0" y="597.0" type="line"/>
      <point x="424.0" y="597.0" type="line"/>
    </contour>
    <contour>
      <point x="1033.0" y="50.0" type="line"/>
      <point x="936.0" y="1360.0" type="line"/>
      <point x="916.0" y="1360.0" type="line"/>
      <point x="55.0" y="50.0" type="line"/>
      <point x="-115.0" y="22.0" type="line"/>
      <point x="-121.0" y="0.0" type="line"/>
      <point x="257.0" y="0.0" type="line"/>
      <point x="264.0" y="22.0" type="line"/>
      <point x="106.0" y="50.0" type="line"/>
      <point x="904.0" y="1265.0" type="line"/>
      <point x="877.0" y="1265.0" type="line"/>
      <point x="963.0" y="50.0" type="line"/>
      <point x="795.0" y="22.0" type="line"/>
      <point x="788.0" y="0.0" type="line"/>
      <point x="1185.0" y="0.0" type="line"/>
      <point x="1192.0" y="22.0" type="line"/>
    </contour>
  </outline>
</glyph>
<glyph name="I" format="2">
  <advance width="544"/>
  <unicode hex="0049"/>
  <anchor x="546.0" y="1340" name="UCtop"/>
  <anchor x="297.0" y="0" name="right"/>
  <anchor x="137.0" y="0" name="bottom"/>
  <outline>
    <contour>
      <point x="501.0" y="1290.0" type="line"/>
      <point x="121.0" y="50.0" type="line"/>
      <point x="-47.0" y="22.0" type="line"/>
      <point x="-53.0" y="0.0" type="line"/>
      <point x="346.0" y="0.0" type="line"/>
      <point x="352.0" y="22.0" type="line"/>
      <point x="193.0" y="50.0" type="line"/>
      <point x="573.0" y="1290.0" type="line"/>
      <point x="741.0" y="1318.0" type="line"/>
      <point x="747.0" y="1340.0" type="line"/>
      <point x="348.0" y="1340.0" type="line"/>
      <point x="342.0" y="1318.0" type="line"/>
    </contour>
  </outline>
</glyph>
<glyph name="Y" format="2">
  <advance width="1257"/>
  <unicode hex="0059"/>
  <guideline x="488.0" y="1288" angle="181.3696371111128" identifier="yfDx8nHoB6"/>
  <anchor x="894.0" y="1340" name="UCtop"/>
  <anchor x="525.0" y="0" name="bottom"/>
  <outline>
    <contour>
      <point x="1275.0" y="1288.0" type="line"/>
      <point x="687.0" y="603.0" type="line"/>
      <point x="718.0" y="604.0" type="line"/>
      <point x="493.0" y="1288.0" type="line"/>
      <point x="666.0" y="1318.0" type="line"/>
      <point x="672.0" y="1340.0" type="line"/>
      <point x="268.0" y="1340.0" type="line"/>
      <point x="262.0" y="1318.0" type="line"/>
      <point x="416.0" y="1288.0" type="line"/>
      <point x="650.0" y="585.0" type="line"/>
      <point x="486.0" y="50.0" type="line"/>
      <point x="318.0" y="22.0" type="line"/>
      <point x="312.0" y="0.0" type="line"/>
      <point x="711.0" y="0.0" type="line"/>
      <point x="717.0" y="22.0" type="line"/>
      <point x="558.0" y="50.0" type="line"/>
      <point x="722.0" y="585.0" type="line"/>
      <point x="1328.0" y="1288.0" type="line"/>
      <point x="1501.0" y="1318.0" type="line"/>
      <point x="1508.0" y="1340.0" type="line"/>
      <point x="1128.0" y="1340.0" type="line"/>
      <point x="1121.0" y="1318.0" type="line"/>
    </contour>
  </outline>
</glyph>
<glyph name="asciicircum" format="2">
  <advance width="1000"/>
  <unicode hex="005E"/>
  <outline>
    <contour>
      <point x="770.0" y="1309.0" type="line"/>
      <point x="864.0" y="592.0" type="line"/>
      <point x="912.0" y="592.0" type="line"/>
      <point x="801.0" y="1340.0" type="line"/>
      <point x="765.0" y="1340.0" type="line"/>
      <point x="200.0" y="592.0" type="line"/>
      <point x="256.0" y="592.0" type="line"/>
      <point x="789.0" y="1309.0" type="line"/>
    </contour>
  </outline>
</glyph>
<glyph name="f" format="2">
  <advance width="537"/>
  <unicode hex="0066"/>
  <guideline x="330.0" y="961" angle="1.1210787973096215" identifier="ZsoWwL4NRd"/>
  <anchor x="718.0" y="1340" name="UCtop"/>
  <anchor x="-100.0" y="-510" name="bottom"/>
  <outline>
    <contour>
      <point x="113.0" y="807.0" type="line"/>
      <point x="642.0" y="807.0" type="line"/>
      <point x="651.0" y="852.0" type="line"/>
      <point x="122.0" y="852.0" type="line"/>
    </contour>
    <contour>
      <point x="229" y="75" type="curve" smooth="yes"/>
      <point x="423" y="983" type="line" smooth="yes"/>
      <point x="484" y="1269"/>
      <point x="609.0" y="1377.0"/>
      <point x="753" y="1377" type="curve" smooth="yes"/>
      <point x="798" y="1377"/>
      <point x="825" y="1367"/>
      <point x="861" y="1340" type="curve" smooth="yes"/>
      <point x="897.0" y="1313.0"/>
      <point x="917" y="1282"/>
      <point x="929" y="1282" type="curve" smooth="yes"/>
      <point x="956" y="1282"/>
      <point x="983" y="1302"/>
      <point x="983" y="1329" type="curve" smooth="yes"/>
      <point x="983" y="1373"/>
      <point x="930" y="1419"/>
      <point x="814" y="1419" type="curve" smooth="yes"/>
      <point x="598.0" y="1419.0"/>
      <point x="417" y="1287"/>
      <point x="338" y="914" type="curve" smooth="yes"/>
      <point x="145" y="4" type="line" smooth="yes"/>
      <point x="63" y="-382"/>
      <point x="-39.0" y="-486.0"/>
      <point x="-160" y="-486" type="curve" smooth="yes"/>
      <point x="-196" y="-486"/>
      <point x="-227" y="-476"/>
      <point x="-259" y="-446" type="curve" smooth="yes"/>
      <point x="-291.0" y="-416.0"/>
      <point x="-304" y="-393"/>
      <point x="-315" y="-393" type="curve" smooth="yes"/>
      <point x="-342" y="-393"/>
      <point x="-369" y="-413"/>
      <point x="-369" y="-440" type="curve" smooth="yes"/>
      <point x="-369" y="-484"/>
      <point x="-316" y="-530"/>
      <point x="-209" y="-530" type="curve" smooth="yes"/>
      <point x="-17" y="-530"/>
      <point x="130" y="-389"/>
    </contour>
  </outline>
</glyph>
<glyph name="j" format="2">
  <advance width="449"/>
  <unicode hex="006A"/>
  <anchor x="462.0" y="1340" name="top"/>
  <anchor x="-213.0" y="-510" name="bottom"/>
  <outline>
    <contour>
      <point x="415.0" y="1341.0" type="curve" smooth="yes"/>
      <point x="415.0" y="1297.0"/>
      <point x="447.0" y="1264.0"/>
      <point x="492.0" y="1264.0" type="curve" smooth="yes"/>
      <point x="540.0" y="1264.0"/>
      <point x="569.0" y="1297.0"/>
      <point x="569.0" y="1341.0" type="curve" smooth="yes"/>
      <point x="569.0" y="1383.0"/>
      <point x="540.0" y="1415.0"/>
      <point x="492.0" y="1415.0" type="curve" smooth="yes"/>
      <point x="447.0" y="1415.0"/>
      <point x="415.0" y="1383.0"/>
    </contour>
    <contour>
      <point x="175" y="10" type="curve" smooth="yes"/>
      <point x="414" y="793" type="line" smooth="yes"/>
      <point x="432" y="853"/>
      <point x="432" y="872"/>
      <point x="373" y="872" type="curve" smooth="yes"/>
      <point x="308" y="872"/>
      <point x="196" y="824"/>
      <point x="50" y="652" type="curve"/>
      <point x="68" y="634" type="line"/>
      <point x="214" y="781"/>
      <point x="302" y="808"/>
      <point x="367" y="808" type="curve"/>
      <point x="361" y="829" type="line"/>
      <point x="95" y="-37" type="line" smooth="yes"/>
      <point x="-8" y="-373"/>
      <point x="-126" y="-474"/>
      <point x="-243" y="-474" type="curve" smooth="yes"/>
      <point x="-274.0" y="-474.0"/>
      <point x="-300.0" y="-464"/>
      <point x="-324" y="-450" type="curve" smooth="yes"/>
      <point x="-348" y="-436"/>
      <point x="-362" y="-422"/>
      <point x="-372" y="-422" type="curve" smooth="yes"/>
      <point x="-391" y="-422"/>
      <point x="-412" y="-440"/>
      <point x="-412" y="-471" type="curve" smooth="yes"/>
      <point x="-412" y="-501"/>
      <point x="-381" y="-530"/>
      <point x="-312" y="-530" type="curve" smooth="yes"/>
      <point x="-133" y="-530"/>
      <point x="57" y="-376"/>
    </contour>
  </outline>
</glyph>
<glyph name="p" format="2">
  <advance width="950"/>
  <unicode hex="0070"/>
  <anchor x="599.0" y="852.0" name="top"/>
  <anchor x="27.0" y="-510" name="bottom"/>
  <outline>
    <contour>
      <point x="251.0" y="202.0" type="curve" smooth="yes"/>
      <point x="282.0" y="323.0" type="line" smooth="yes"/>
      <point x="343.0" y="561.0"/>
      <point x="513.0" y="810.0"/>
      <point x="686.0" y="810.0" type="curve" smooth="yes"/>
      <point x="775.0" y="810.0"/>
      <point x="821.0" y="741.0"/>
      <point x="821.0" y="604.0" type="curve" smooth="yes"/>
      <point x="821.0" y="297.0"/>
      <point x="582.0" y="11.0"/>
      <point x="395.0" y="11.0" type="curve" smooth="yes"/>
      <point x="303.0" y="11.0"/>
      <point x="246.0" y="82.0"/>
      <point x="246.0" y="161.0" type="curve" smooth="yes"/>
      <point x="246.0" y="174.0"/>
      <point x="247.0" y="188.0"/>
    </contour>
    <contour>
      <point x="184.0" y="104.0" type="line"/>
      <point x="199.0" y="33.0"/>
      <point x="274.0" y="-20.0"/>
      <point x="388.0" y="-20.0" type="curve" smooth="yes"/>
      <point x="638.0" y="-20.0"/>
      <point x="903.0" y="294.0"/>
      <point x="903.0" y="649.0" type="curve" smooth="yes"/>
      <point x="903.0" y="790.0"/>
      <point x="837.0" y="872.0"/>
      <point x="715.0" y="872.0" type="curve" smooth="yes"/>
      <point x="600.0" y="872.0"/>
      <point x="436.0" y="765.0"/>
      <point x="300.0" y="460.0" type="curve"/>
      <point x="313.0" y="443.0" type="line"/>
      <point x="423.0" y="856.0" type="line"/>
      <point x="406.0" y="862.0"/>
      <point x="372.0" y="868.0"/>
      <point x="340.0" y="868.0" type="curve" smooth="yes"/>
      <point x="237.0" y="868.0"/>
      <point x="152.0" y="818.0"/>
      <point x="58.0" y="630.0" type="curve"/>
      <point x="80.0" y="619.0" type="line"/>
      <point x="151.0" y="741.0"/>
      <point x="224.0" y="811.0"/>
      <point x="303.0" y="811.0" type="curve" smooth="yes"/>
      <point x="325.0" y="811.0"/>
      <point x="336.0" y="809.0"/>
      <point x="343.0" y="807.0" type="curve"/>
      <point x="8.0" y="-461.0" type="line"/>
      <point x="-139.0" y="-487.0" type="line"/>
      <point x="-146.0" y="-510.0" type="line"/>
      <point x="245.0" y="-510.0" type="line"/>
      <point x="252.0" y="-487.0" type="line"/>
      <point x="75.0" y="-461.0" type="line"/>
      <point x="224.0" y="104.0" type="line"/>
    </contour>
  </outline>
</glyph>
<glyph name="q" format="2">
  <advance width="830"/>
  <unicode hex="0071"/>
  <guideline x="817.0" y="850" angle="177.21137068538417" identifier="nzPKJNRc42"/>
  <anchor x="542.0" y="852.0" name="top"/>
  <anchor x="391.0" y="-510" name="bottom"/>
  <outline>
    <contour>
      <point x="373.0" y="-461.0" type="line"/>
      <point x="193.0" y="-487.0" type="line"/>
      <point x="186.0" y="-510.0" type="line"/>
      <point x="575.0" y="-510.0" type="line"/>
      <point x="582.0" y="-487.0" type="line"/>
      <point x="438.0" y="-461.0" type="line"/>
      <point x="819.0" y="852.0" type="line"/>
      <point x="754.0" y="852.0" type="line"/>
      <point x="733.0" y="781.0" type="line"/>
      <point x="669.0" y="558.0" type="line" smooth="yes"/>
      <point x="595.0" y="303.0"/>
      <point x="375.0" y="44.0"/>
      <point x="223.0" y="44.0" type="curve" smooth="yes"/>
      <point x="136.0" y="44.0"/>
      <point x="102.0" y="94.0"/>
      <point x="102.0" y="192.0" type="curve" smooth="yes"/>
      <point x="102.0" y="424.0"/>
      <point x="354.0" y="837.0"/>
      <point x="607.0" y="837.0" type="curve" smooth="yes"/>
      <point x="685.0" y="837.0"/>
      <point x="719.0" y="792.0"/>
      <point x="742.0" y="716.0" type="curve"/>
      <point x="770.0" y="740.0" type="line"/>
      <point x="736.0" y="817.0"/>
      <point x="705.0" y="867.0"/>
      <point x="608.0" y="867.0" type="curve" smooth="yes"/>
      <point x="314.0" y="867.0"/>
      <point x="25.0" y="452.0"/>
      <point x="25.0" y="164.0" type="curve" smooth="yes"/>
      <point x="25.0" y="52.0"/>
      <point x="72.0" y="-20.0"/>
      <point x="190.0" y="-20.0" type="curve" smooth="yes"/>
      <point x="322.0" y="-20.0"/>
      <point x="512.0" y="181.0"/>
      <point x="635.0" y="408.0" type="curve"/>
      <point x="624.0" y="408.0" type="line"/>
    </contour>
  </outline>
</glyph>
<glyph name="v" format="2">
  <advance width="846"/>
  <unicode hex="0076"/>
  <guideline x="425.0" y="856" angle="177.8910059591988" identifier="k6zj7WPJdz"/>
  <anchor x="542.0" y="852.0" name="top"/>
  <anchor x="302.0" y="0" name="bottom"/>
  <outline>
    <contour>
      <point x="800" y="717" type="curve" smooth="yes"/>
      <point x="800" y="833"/>
      <point x="778" y="872"/>
      <point x="731" y="872" type="curve" smooth="yes"/>
      <point x="700" y="872"/>
      <point x="671" y="850"/>
      <point x="671" y="814" type="curve" smooth="yes"/>
      <point x="671" y="785"/>
      <point x="751" y="751"/>
      <point x="751" y="637" type="curve" smooth="yes"/>
      <point x="751" y="397"/>
      <point x="529" y="39"/>
      <point x="293" y="39" type="curve" smooth="yes"/>
      <point x="228" y="39"/>
      <point x="192" y="68"/>
      <point x="192" y="129" type="curve" smooth="yes"/>
      <point x="192" y="153"/>
      <point x="198" y="183"/>
      <point x="210" y="219" type="curve" smooth="yes"/>
      <point x="429" y="856" type="line"/>
      <point x="415" y="862"/>
      <point x="376" y="868"/>
      <point x="346" y="868" type="curve" smooth="yes"/>
      <point x="243" y="868"/>
      <point x="158" y="818"/>
      <point x="64" y="630" type="curve"/>
      <point x="86" y="619" type="line"/>
      <point x="157" y="741"/>
      <point x="230" y="811"/>
      <point x="309" y="811" type="curve" smooth="yes"/>
      <point x="331" y="811"/>
      <point x="342" y="809"/>
      <point x="349" y="807" type="curve"/>
      <point x="152" y="235" type="line" smooth="yes"/>
      <point x="137" y="192"/>
      <point x="130" y="154"/>
      <point x="130" y="123" type="curve" smooth="yes"/>
      <point x="130" y="27"/>
      <point x="194" y="-16"/>
      <point x="286" y="-16" type="curve" smooth="yes"/>
      <point x="505" y="-16"/>
      <point x="800" y="349"/>
    </contour>
  </outline>
</glyph>
<glyph name="y" format="2">
  <advance width="860"/>
  <unicode hex="0079"/>
  <anchor x="519.0" y="852.0" name="top"/>
  <anchor x="587.0" y="-195" name="bottom"/>
  <outline>
    <contour>
      <point x="79.0" y="537.0" type="line"/>
      <point x="149.0" y="743"/>
      <point x="216" y="804"/>
      <point x="280.0" y="804.0" type="curve" smooth="yes"/>
      <point x="302" y="804.0"/>
      <point x="309.0" y="796.0"/>
      <point x="336" y="659" type="curve" smooth="yes"/>
      <point x="363" y="522"/>
      <point x="394" y="222"/>
      <point x="415.0" y="-168.0" type="curve"/>
      <point x="476.0" y="-75.0" type="line"/>
      <point x="460.0" y="283"/>
      <point x="428" y="571"/>
      <point x="395" y="715" type="curve" smooth="yes"/>
      <point x="362" y="859"/>
      <point x="346" y="872"/>
      <point x="305.0" y="872.0" type="curve" smooth="yes"/>
      <point x="213.0" y="872.0"/>
      <point x="117" y="789"/>
      <point x="49.0" y="537.0" type="curve"/>
    </contour>
    <contour>
      <point x="426" y="-112" type="line"/>
      <point x="265" y="-354"/>
      <point x="110" y="-461"/>
      <point x="4" y="-461" type="curve" smooth="yes"/>
      <point x="-31" y="-461"/>
      <point x="-61" y="-442"/>
      <point x="-81" y="-426" type="curve" smooth="yes"/>
      <point x="-101.0" y="-410.0"/>
      <point x="-115" y="-397"/>
      <point x="-124" y="-397" type="curve" smooth="yes"/>
      <point x="-145" y="-397"/>
      <point x="-168" y="-419"/>
      <point x="-168" y="-457" type="curve" smooth="yes"/>
      <point x="-168" y="-497"/>
      <point x="-131" y="-530"/>
      <point x="-59" y="-530" type="curve" smooth="yes"/>
      <point x="103" y="-530"/>
      <point x="310" y="-371"/>
      <point x="502" y="-55" type="curve" smooth="yes"/>
      <point x="694" y="261"/>
      <point x="826" y="638"/>
      <point x="826" y="826" type="curve" smooth="yes"/>
      <point x="826" y="853"/>
      <point x="821" y="858"/>
      <point x="798" y="858" type="curve" smooth="yes"/>
      <point x="784" y="858"/>
      <point x="766" y="856"/>
      <point x="750" y="852" type="curve"/>
      <point x="757" y="581"/>
      <point x="650" y="232"/>
      <point x="455" y="-68" type="curve"/>
    </contour>
  </outline>
</glyph>
<glyph name="exclamdown" format="2">
  <advance width="380"/>
  <unicode hex="00A1"/>
  <outline>
    <contour>
      <point x="-129.0" y="-471.0" type="line" smooth="yes"/>
      <point x="-136.0" y="-494.0"/>
      <point x="-121.0" y="-503.0"/>
      <point x="-91.0" y="-503.0" type="curve" smooth="yes"/>
      <point x="-62.0" y="-503.0"/>
      <point x="-50.0" y="-494.0"/>
      <point x="-43.0" y="-471.0" type="curve" smooth="yes"/>
      <point x="-37.0" y="-451.0" type="line" smooth="yes"/>
      <point x="-27.0" y="-420.0"/>
      <point x="120.0" y="130.0"/>
      <point x="213.0" y="451.0" type="curve"/>
      <point x="181.0" y="451.0" type="line"/>
      <point x="78.0" y="130.0"/>
      <point x="-115.0" y="-423.0"/>
      <point x="-123.0" y="-451.0" type="curve" smooth="yes"/>
    </contour>
    <contour>
      <point x="280.0" y="702.0" type="curve" smooth="yes"/>
      <point x="334.0" y="702.0"/>
      <point x="374.0" y="746.0"/>
      <point x="374.0" y="800.0" type="curve" smooth="yes"/>
      <point x="374.0" y="836.0"/>
      <point x="351.0" y="862.0"/>
      <point x="313.0" y="862.0" type="curve" smooth="yes"/>
      <point x="259.0" y="862.0"/>
      <point x="219.0" y="818.0"/>
      <point x="219.0" y="764.0" type="curve" smooth="yes"/>
      <point x="219.0" y="728.0"/>
      <point x="242.0" y="702.0"/>
    </contour>
  </outline>
</glyph>
<glyph name="brokenbar" format="2">
  <advance width="444"/>
  <unicode hex="00A6"/>
  <guideline x="173.0" y="660" angle="180.0" identifier="g2jZ2JCv2J"/>
  <outline>
    <contour>
      <point x="319.0" y="660.0" type="line"/>
      <point x="557.0" y="1470.0" type="line"/>
      <point x="504.0" y="1470.0" type="line"/>
      <point x="266.0" y="660.0" type="line"/>
    </contour>
    <contour>
      <point x="-84.0" y="-530.0" type="line"/>
      <point x="-31.0" y="-530.0" type="line"/>
      <point x="207.0" y="280.0" type="line"/>
      <point x="154.0" y="280.0" type="line"/>
    </contour>
  </outline>
</glyph>
<glyph name="logicalnot" format="2">
  <advance width="1000"/>
  <unicode hex="00AC"/>
  <outline>
    <contour>
      <point x="207.0" y="648.0" type="line"/>
      <point x="193.0" y="604.0" type="line"/>
      <point x="862.0" y="604.0" type="line"/>
      <point x="745.0" y="224.0" type="line"/>
      <point x="791.0" y="224.0" type="line"/>
      <point x="921.0" y="648.0" type="line"/>
    </contour>
  </outline>
</glyph>
<glyph name="registered" format="2">
  <advance width="1113"/>
  <unicode hex="00AE"/>
  <outline>
    <contour>
      <point x="896.0" y="738.0" type="line"/>
      <point x="858.0" y="738.0"/>
      <point x="853.0" y="741.0"/>
      <point x="845.0" y="782.0" type="curve" smooth="yes"/>
      <point x="827.0" y="880.0" type="line" smooth="yes"/>
      <point x="817.0" y="933.0"/>
      <point x="805.0" y="949.0"/>
      <point x="748.0" y="949.0" type="curve"/>
      <point x="755.0" y="945.0" type="line"/>
      <point x="850.0" y="952.0"/>
      <point x="913.0" y="1005.0"/>
      <point x="913.0" y="1072.0" type="curve" smooth="yes"/>
      <point x="913.0" y="1129.0"/>
      <point x="874.0" y="1166.0"/>
      <point x="771.0" y="1166.0" type="curve" smooth="yes"/>
      <point x="675.0" y="1166.0" type="line"/>
      <point x="667.0" y="1133.0" type="line"/>
      <point x="756.0" y="1133.0" type="line" smooth="yes"/>
      <point x="825.0" y="1133.0"/>
      <point x="849.0" y="1107.0"/>
      <point x="849.0" y="1065.0" type="curve" smooth="yes"/>
      <point x="849.0" y="1004.0"/>
      <point x="809.0" y="964.0"/>
      <point x="720.0" y="964.0" type="curve" smooth="yes"/>
      <point x="619.0" y="964.0" type="line"/>
      <point x="607.0" y="929.0" type="line"/>
      <point x="723.0" y="929.0" type="line" smooth="yes"/>
      <point x="755.0" y="929.0"/>
      <point x="767.0" y="923.0"/>
      <point x="776.0" y="873.0" type="curve" smooth="yes"/>
      <point x="792.0" y="780.0" type="line" smooth="yes"/>
      <point x="802.5283018867924" y="716.8301886792453"/>
      <point x="808.0" y="713.0"/>
      <point x="890.0" y="716.0" type="curve"/>
    </contour>
    <contour>
      <point x="714.0" y="1166.0" type="line"/>
      <point x="588.0" y="1166.0" type="line"/>
      <point x="583.0" y="1148.0" type="line"/>
      <point x="646.0" y="1134.0" type="line"/>
      <point x="529.0" y="750.0" type="line"/>
      <point x="456.0" y="735.0" type="line"/>
      <point x="451.0" y="717.0" type="line"/>
      <point x="644.0" y="717.0" type="line"/>
      <point x="649.0" y="735.0" type="line"/>
      <point x="587.0" y="750.0" type="line"/>
    </contour>
    <contour>
      <point x="666.0" y="546.0" type="curve" smooth="yes"/>
      <point x="454.0" y="546.0"/>
      <point x="317.0" y="672.0"/>
      <point x="317.0" y="873.0" type="curve" smooth="yes"/>
      <point x="317.0" y="1117.0"/>
      <point x="485.0" y="1319.0"/>
      <point x="748.0" y="1319.0" type="curve" smooth="yes"/>
      <point x="960.0" y="1319.0"/>
      <point x="1097.0" y="1194.0"/>
      <point x="1097.0" y="993.0" type="curve" smooth="yes"/>
      <point x="1097.0" y="749.0"/>
      <point x="929.0" y="547.0"/>
    </contour>
    <contour>
      <point x="752.0" y="1360.0" type="curve" smooth="yes"/>
      <point x="456.0" y="1360.0"/>
      <point x="270.0" y="1132.0"/>
      <point x="270.0" y="868.0" type="curve" smooth="yes"/>
      <point x="270.0" y="644.0"/>
      <point x="420.0" y="506.0"/>
      <point x="662.0" y="506.0" type="curve" smooth="yes"/>
      <point x="958.0" y="506.0"/>
      <point x="1144.0" y="734.0"/>
      <point x="1144.0" y="998.0" type="curve" smooth="yes"/>
      <point x="1144.0" y="1222.0"/>
      <point x="994.0" y="1360.0"/>
    </contour>
  </outline>
</glyph>
<glyph name="uni00B2" format="2">
  <advance width="634"/>
  <unicode hex="00B2"/>
  <outline>
    <contour>
      <point x="525.0" y="618.0" type="line"/>
      <point x="587.0" y="646.0" type="line"/>
      <point x="217.0" y="646.0" type="line"/>
      <point x="193.0" y="610.0" type="line"/>
      <point x="476.0" y="850.0" type="line" smooth="yes"/>
      <point x="683.0" y="1025.0"/>
      <point x="723.0" y="1096.0"/>
      <point x="723.0" y="1193.0" type="curve" smooth="yes"/>
      <point x="723.0" y="1289.0"/>
      <point x="654.0" y="1354.0"/>
      <point x="545.0" y="1354.0" type="curve" smooth="yes"/>
      <point x="405.0" y="1354.0"/>
      <point x="321.0" y="1267.0"/>
      <point x="282.0" y="1102.0" type="curve"/>
      <point x="307.0" y="1097.0" type="line"/>
      <point x="351.0" y="1245.0"/>
      <point x="416.0" y="1301.0"/>
      <point x="523.0" y="1301.0" type="curve" smooth="yes"/>
      <point x="608.0" y="1301.0"/>
      <point x="655.0" y="1252.0"/>
      <point x="655.0" y="1171.0" type="curve" smooth="yes"/>
      <point x="655.0" y="1087.0"/>
      <point x="609.0" y="1011.0"/>
      <point x="436.0" y="858.0" type="curve" smooth="yes"/>
      <point x="143.0" y="600.0" type="line"/>
      <point x="141.0" y="592.0" type="line"/>
      <point x="544.0" y="592.0" type="line"/>
      <point x="574.0" y="581.0" type="line"/>
      <point x="584.0" y="581.0" type="line"/>
      <point x="687.0" y="784.0" type="line"/>
      <point x="668.0" y="784.0" type="line"/>
    </contour>
  </outline>
</glyph>
<glyph name="ordmasculine" format="2">
  <advance width="818"/>
  <unicode hex="00BA"/>
  <guideline x="156.0" y="485" angle="2.083040827822905" identifier="ZlFSEPl85Z"/>
  <guideline x="704.0" y="485" angle="2.083040827822905" identifier="peT7TmjqOg"/>
  <outline>
    <contour>
      <point x="156.0" y="485.0" type="line"/>
      <point x="704.0" y="485.0" type="line"/>
      <point x="719.0" y="534.0" type="line"/>
      <point x="171.0" y="534.0" type="line"/>
    </contour>
    <contour>
      <point x="696.0" y="1360.0" type="curve" smooth="yes"/>
      <point x="470.0" y="1360.0"/>
      <point x="305.0" y="1119.0"/>
      <point x="305.0" y="881.0" type="curve" smooth="yes"/>
      <point x="305.0" y="751.0"/>
      <point x="369.0" y="679.0"/>
      <point x="490.0" y="679.0" type="curve" smooth="yes"/>
      <point x="716.0" y="679.0"/>
      <point x="881.0" y="920.0"/>
      <point x="881.0" y="1158.0" type="curve" smooth="yes"/>
      <point x="881.0" y="1288.0"/>
      <point x="817.0" y="1360.0"/>
    </contour>
    <contour>
      <point x="493.0" y="708.0" type="curve" smooth="yes"/>
      <point x="410.0" y="708.0"/>
      <point x="371.0" y="757.0"/>
      <point x="371.0" y="876.0" type="curve" smooth="yes"/>
      <point x="371.0" y="1074.0"/>
      <point x="508.0" y="1331.0"/>
      <point x="693.0" y="1331.0" type="curve" smooth="yes"/>
      <point x="776.0" y="1331.0"/>
      <point x="815.0" y="1282.0"/>
      <point x="815.0" y="1163.0" type="curve" smooth="yes"/>
      <point x="815.0" y="965.0"/>
      <point x="678.0" y="708.0"/>
    </contour>
  </outline>
</glyph>
<glyph name="Thorn" format="2">
  <advance width="1089"/>
  <unicode hex="00DE"/>
  <guideline x="1165.0" y="941" angle="8.641594466300717" identifier="f8eV68gn1K"/>
  <outline>
    <contour>
      <point x="1022.0" y="552.0"/>
      <point x="872.0" y="363.0"/>
      <point x="479.0" y="363.0" type="curve" smooth="yes"/>
      <point x="253.0" y="363.0" type="line"/>
      <point x="239.0" y="321.0" type="line"/>
      <point x="530.0" y="321.0" type="line" smooth="yes"/>
      <point x="915.0" y="321.0"/>
      <point x="1095.0" y="540.0"/>
      <point x="1095.0" y="779.0" type="curve" smooth="yes"/>
      <point x="1095.0" y="943.0"/>
      <point x="992.0" y="1063.0"/>
      <point x="714.0" y="1063.0" type="curve" smooth="yes"/>
      <point x="467.0" y="1063.0" type="line"/>
      <point x="453.0" y="1021.0" type="line"/>
      <point x="658.0" y="1021.0" type="line" smooth="yes"/>
      <point x="928.0" y="1021.0"/>
      <point x="1022.0" y="930.0"/>
      <point x="1022.0" y="781.0" type="curve" smooth="yes"/>
    </contour>
    <contour>
      <point x="501.0" y="1290.0" type="line"/>
      <point x="121.0" y="50.0" type="line"/>
      <point x="-47.0" y="22.0" type="line"/>
      <point x="-53.0" y="0.0" type="line"/>
      <point x="346.0" y="0.0" type="line"/>
      <point x="352.0" y="22.0" type="line"/>
      <point x="193.0" y="50.0" type="line"/>
      <point x="573.0" y="1290.0" type="line"/>
      <point x="741.0" y="1318.0" type="line"/>
      <point x="747.0" y="1340.0" type="line"/>
      <point x="348.0" y="1340.0" type="line"/>
      <point x="342.0" y="1318.0" type="line"/>
    </contour>
  </outline>
</glyph>
<glyph name="divide" format="2">
  <advance width="1000"/>
  <unicode hex="00F7"/>
  <outline>
    <contour>
      <point x="152.0" y="456.0" type="line"/>
      <point x="139.0" y="412.0" type="line"/>
      <point x="853.0" y="412.0" type="line"/>
      <point x="866.0" y="456.0" type="line"/>
    </contour>
    <contour>
      <point x="597.0" y="822.0" type="curve" smooth="yes"/>
      <point x="552.0" y="822.0"/>
      <point x="518.0" y="786.0"/>
      <point x="518.0" y="742.0" type="curve" smooth="yes"/>
      <point x="518.0" y="698.0"/>
      <point x="552.0" y="662.0"/>
      <point x="597.0" y="662.0" type="curve" smooth="yes"/>
      <point x="642.0" y="662.0"/>
      <point x="676.0" y="698.0"/>
      <point x="676.0" y="742.0" type="curve" smooth="yes"/>
      <point x="676.0" y="786.0"/>
      <point x="642.0" y="822.0"/>
    </contour>
    <contour>
      <point x="406.0" y="198.0" type="curve" smooth="yes"/>
      <point x="361.0" y="198.0"/>
      <point x="327.0" y="162.0"/>
      <point x="327.0" y="118.0" type="curve" smooth="yes"/>
      <point x="327.0" y="74.0"/>
      <point x="361.0" y="38.0"/>
      <point x="406.0" y="38.0" type="curve" smooth="yes"/>
      <point x="451.0" y="38.0"/>
      <point x="485.0" y="74.0"/>
      <point x="485.0" y="118.0" type="curve" smooth="yes"/>
      <point x="485.0" y="162.0"/>
      <point x="451.0" y="198.0"/>
    </contour>
  </outline>
</glyph>
<glyph name="aogonek" format="2">
  <advance width="875"/>
  <unicode hex="0105"/>
  <outline>
    <contour>
      <point x="853.0" y="175.0" type="curve"/>
      <point x="836.0" y="194.0" type="line"/>
      <point x="680.0" y="49.0"/>
      <point x="593.0" y="39.0"/>
      <point x="529.0" y="46.0" type="curve"/>
      <point x="552.0" y="24.0" type="line"/>
      <point x="819.0" y="852.0" type="line"/>
      <point x="754.0" y="852.0" type="line"/>
      <point x="730.0" y="770.0" type="line"/>
      <point x="669.0" y="558.0" type="line" smooth="yes"/>
      <point x="595.0" y="303.0"/>
      <point x="375.0" y="44.0"/>
      <point x="223.0" y="44.0" type="curve" smooth="yes"/>
      <point x="136.0" y="44.0"/>
      <point x="102.0" y="94.0"/>
      <point x="102.0" y="192.0" type="curve" smooth="yes"/>
      <point x="102.0" y="424.0"/>
      <point x="349.0" y="827.0"/>
      <point x="602.0" y="827.0" type="curve" smooth="yes"/>
      <point x="680.0" y="827.0"/>
      <point x="714.0" y="782.0"/>
      <point x="737.0" y="706.0" type="curve"/>
      <point x="776.0" y="738.0" type="line"/>
      <point x="743.0" y="809.0"/>
      <point x="700.0" y="857.0"/>
      <point x="603.0" y="857.0" type="curve" smooth="yes"/>
      <point x="309.0" y="857.0"/>
      <point x="25.0" y="452.0"/>
      <point x="25.0" y="164.0" type="curve" smooth="yes"/>
      <point x="25.0" y="52.0"/>
      <point x="72.0" y="-20.0"/>
      <point x="190.0" y="-20.0" type="curve" smooth="yes"/>
      <point x="319.0" y="-20.0"/>
      <point x="504.0" y="173.0"/>
      <point x="627.0" y="394.0" type="curve"/>
      <point x="614.0" y="394.0" type="line"/>
      <point x="500.0" y="59.0" type="line" smooth="yes"/>
      <point x="479.0" y="-1.0"/>
      <point x="480.0" y="-20.0"/>
      <point x="543.0" y="-20.0" type="curve" smooth="yes"/>
      <point x="586.0" y="-20.0"/>
      <point x="641.0" y="-2.0"/>
      <point x="710.0" y="46.0" type="curve"/>
      <point x="702.0" y="55.0" type="line"/>
      <point x="509.0" y="-141.0" type="line" smooth="yes"/>
      <point x="361.0" y="-291.0"/>
      <point x="341.0" y="-336.0"/>
      <point x="341.0" y="-404.0" type="curve" smooth="yes"/>
      <point x="341.0" y="-481.0"/>
      <point x="392.0" y="-530.0"/>
      <point x="480.0" y="-530.0" type="curve" smooth="yes"/>
      <point x="545.0" y="-530.0"/>
      <point x="596.0" y="-499.0"/>
      <point x="683.0" y="-406.0" type="curve"/>
      <point x="670.0" y="-392.0" type="line"/>
      <point x="602.0" y="-456.0"/>
      <point x="558.0" y="-474.0"/>
      <point x="505.0" y="-474.0" type="curve" smooth="yes"/>
      <point x="453.0" y="-474.0"/>
      <point x="407.0" y="-447.0"/>
      <point x="407.0" y="-384.0" type="curve" smooth="yes"/>
      <point x="407.0" y="-324.0"/>
      <point x="426.0" y="-282.0"/>
      <point x="573.0" y="-125.0" type="curve" smooth="yes"/>
      <point x="701.0" y="11.0" type="line" smooth="yes"/>
      <point x="754.0" y="68.0"/>
      <point x="809.0" y="127.0"/>
    </contour>
  </outline>
</glyph>
<glyph name="Dcroat" format="2">
  <advance width="1372"/>
  <unicode hex="0110"/>
  <guideline x="-49.0" y="0" angle="5.30833572444575" identifier="SiMYjLbvVl"/>
  <outline>
    <contour>
      <point x="151.0" y="654.0" type="line"/>
      <point x="695.0" y="654.0" type="line"/>
      <point x="711.0" y="707.0" type="line"/>
      <point x="167.0" y="707.0" type="line"/>
    </contour>
    <contour>
      <point x="418.0" y="42.0" type="curve" smooth="yes"/>
      <point x="127.0" y="42.0" type="line"/>
      <point x="130.0" y="0.0" type="line"/>
      <point x="452.0" y="0.0" type="line" smooth="yes"/>
      <point x="1030.0" y="0.0"/>
      <point x="1357.0" y="364.0"/>
      <point x="1357.0" y="844.0" type="curve" smooth="yes"/>
      <point x="1357.0" y="1153.0"/>
      <point x="1161.0" y="1340.0"/>
      <point x="756.0" y="1340.0" type="curve" smooth="yes"/>
      <point x="540.0" y="1340.0" type="line"/>
      <point x="508.0" y="1298.0" type="line"/>
      <point x="714.0" y="1298.0" type="line" smooth="yes"/>
      <point x="1102.0" y="1298.0"/>
      <point x="1279.0" y="1148.0"/>
      <point x="1279.0" y="829.0" type="curve" smooth="yes"/>
      <point x="1279.0" y="460.0"/>
      <point x="1066.0" y="42.0"/>
    </contour>
    <contour>
      <point x="505.0" y="1290.0" type="line"/>
      <point x="125.0" y="50.0" type="line"/>
      <point x="-43.0" y="22.0" type="line"/>
      <point x="-49.0" y="0.0" type="line"/>
      <point x="182.0" y="0.0" type="line"/>
      <point x="592.0" y="1340.0" type="line"/>
      <point x="352.0" y="1340.0" type="line"/>
      <point x="346.0" y="1318.0" type="line"/>
    </contour>
  </outline>
</glyph>
<glyph name="iogonek" format="2">
  <advance width="499"/>
  <unicode hex="012F"/>
  <outline>
    <contour>
      <point x="420.0" y="1341.0" type="curve" smooth="yes"/>
      <point x="420.0" y="1297.0"/>
      <point x="452.0" y="1264.0"/>
      <point x="497.0" y="1264.0" type="curve" smooth="yes"/>
      <point x="545.0" y="1264.0"/>
      <point x="574.0" y="1297.0"/>
      <point x="574.0" y="1341.0" type="curve" smooth="yes"/>
      <point x="574.0" y="1383.0"/>
      <point x="545.0" y="1415.0"/>
      <point x="497.0" y="1415.0" type="curve" smooth="yes"/>
      <point x="452.0" y="1415.0"/>
      <point x="420.0" y="1383.0"/>
    </contour>
    <contour>
      <point x="359.0" y="81.0" type="line" smooth="yes"/>
      <point x="393.0" y="111.0"/>
      <point x="422.0" y="140.0"/>
      <point x="453.0" y="175.0" type="curve"/>
      <point x="436.0" y="194.0" type="line"/>
      <point x="280.0" y="49.0"/>
      <point x="193.0" y="39.0"/>
      <point x="129.0" y="46.0" type="curve"/>
      <point x="155.0" y="23.0" type="line"/>
      <point x="419.0" y="793.0" type="line" smooth="yes"/>
      <point x="439.0" y="852.0"/>
      <point x="438.0" y="872.0"/>
      <point x="378.0" y="872.0" type="curve" smooth="yes"/>
      <point x="313.0" y="872.0"/>
      <point x="201.0" y="824.0"/>
      <point x="55.0" y="652.0" type="curve"/>
      <point x="73.0" y="634.0" type="line"/>
      <point x="234.0" y="796.0"/>
      <point x="324.0" y="812.0"/>
      <point x="392.0" y="807.0" type="curve"/>
      <point x="366.0" y="829.0" type="line"/>
      <point x="102.0" y="59.0" type="line" smooth="yes"/>
      <point x="82.0" y="0.0"/>
      <point x="83.0" y="-20.0"/>
      <point x="143.0" y="-20.0" type="curve" smooth="yes"/>
      <point x="175.0" y="-20.0"/>
      <point x="215.0" y="-10.0"/>
      <point x="262.0" y="16.0" type="curve"/>
      <point x="257.0" y="23.0" type="line"/>
      <point x="71.0" y="-143.0" type="line" smooth="yes"/>
      <point x="-82.0" y="-279.0"/>
      <point x="-101.0" y="-336.0"/>
      <point x="-101.0" y="-404.0" type="curve" smooth="yes"/>
      <point x="-101.0" y="-481.0"/>
      <point x="-50.0" y="-530.0"/>
      <point x="38.0" y="-530.0" type="curve" smooth="yes"/>
      <point x="103.0" y="-530.0"/>
      <point x="154.0" y="-499.0"/>
      <point x="241.0" y="-406.0" type="curve"/>
      <point x="228.0" y="-392.0" type="line"/>
      <point x="160.0" y="-456.0"/>
      <point x="116.0" y="-474.0"/>
      <point x="63.0" y="-474.0" type="curve" smooth="yes"/>
      <point x="11.0" y="-474.0"/>
      <point x="-35.0" y="-447.0"/>
      <point x="-35.0" y="-380.0" type="curve" smooth="yes"/>
      <point x="-35.0" y="-315.0"/>
      <point x="-13.0" y="-256.0"/>
      <point x="131.0" y="-125.0" type="curve" smooth="yes"/>
    </contour>
  </outline>
</glyph>
<glyph name="kgreenlandic" format="2">
  <advance width="890"/>
  <unicode hex="0138"/>
  <outline>
    <contour>
      <point x="420.0" y="856.0" type="line"/>
      <point x="406.0" y="862.0"/>
      <point x="368.0" y="868.0"/>
      <point x="338.0" y="868.0" type="curve" smooth="yes"/>
      <point x="235.0" y="868.0"/>
      <point x="150.0" y="818.0"/>
      <point x="56.0" y="630.0" type="curve"/>
      <point x="78.0" y="619.0" type="line"/>
      <point x="149.0" y="741.0"/>
      <point x="222.0" y="811.0"/>
      <point x="301.0" y="811.0" type="curve" smooth="yes"/>
      <point x="323.0" y="811.0"/>
      <point x="334.0" y="809.0"/>
      <point x="341.0" y="807.0" type="curve"/>
      <point x="102.0" y="0.0" type="line"/>
      <point x="167.0" y="0.0" type="line"/>
    </contour>
    <contour>
      <point x="880.0" y="746.0" type="curve" smooth="yes"/>
      <point x="913.0" y="746.0"/>
      <point x="940.0" y="770.0"/>
      <point x="940.0" y="811.0" type="curve" smooth="yes"/>
      <point x="940.0" y="844.0"/>
      <point x="914.0" y="871.0"/>
      <point x="847.0" y="871.0" type="curve" smooth="yes"/>
      <point x="724.0" y="871.0"/>
      <point x="549.0" y="748.0"/>
      <point x="300.0" y="461.0" type="curve"/>
      <point x="298.0" y="454.0" type="line"/>
      <point x="444.0" y="53.0"/>
      <point x="510.0" y="-16"/>
      <point x="583.0" y="-16.0" type="curve" smooth="yes"/>
      <point x="638" y="-16"/>
      <point x="702.0" y="17.0"/>
      <point x="843.0" y="177.0" type="curve"/>
      <point x="822.0" y="198.0" type="line"/>
      <point x="703.0" y="71.0"/>
      <point x="647" y="37"/>
      <point x="604.0" y="37.0" type="curve" smooth="yes"/>
      <point x="552.0" y="37"/>
      <point x="479.0" y="126.0"/>
      <point x="345.0" y="496.0" type="curve"/>
      <point x="340.0" y="462.0" type="line"/>
      <point x="516.0" y="671.0"/>
      <point x="700.0" y="816.0"/>
      <point x="778.0" y="816.0" type="curve" smooth="yes"/>
      <point x="801" y="816"/>
      <point x="819.0" y="804.0"/>
      <point x="835.0" y="784.0" type="curve" smooth="yes"/>
      <point x="851.0" y="764.0"/>
      <point x="863.0" y="746.0"/>
    </contour>
  </outline>
</glyph>
<glyph name="Lslash" format="2">
  <advance width="1087"/>
  <unicode hex="0141"/>
  <outline>
    <contour>
      <point x="600.0" y="1290.0" type="line"/>
      <point x="768.0" y="1318.0" type="line"/>
      <point x="774.0" y="1340.0" type="line"/>
      <point x="375.0" y="1340.0" type="line"/>
      <point x="369.0" y="1318.0" type="line"/>
      <point x="528.0" y="1290.0" type="line"/>
      <point x="148.0" y="50.0" type="line"/>
      <point x="-20.0" y="22.0" type="line"/>
      <point x="-26.0" y="0.0" type="line"/>
      <point x="205.0" y="0.0" type="line"/>
    </contour>
    <contour>
      <point x="763.0" y="17.0" type="line"/>
      <point x="835.0" y="42.0" type="line"/>
      <point x="99.0" y="42.0" type="line"/>
      <point x="85.0" y="0.0" type="line"/>
      <point x="780.0" y="0.0" type="line"/>
      <point x="840.0" y="-46.0" type="line"/>
      <point x="848.0" y="-46.0" type="line"/>
      <point x="1030.0" y="331.0" type="line"/>
      <point x="1011.0" y="342.0" type="line"/>
    </contour>
    <contour>
      <point x="783.0" y="886.0" type="line"/>
      <point x="391.0" y="679.0" type="line"/>
      <point x="361.0" y="674.0" type="line"/>
      <point x="139.0" y="557.0" type="line"/>
      <point x="119.0" y="491.0" type="line"/>
      <point x="341.0" y="608.0" type="line"/>
      <point x="370.0" y="613.0" type="line"/>
      <point x="762.0" y="820.0" type="line"/>
    </contour>
  </outline>
</glyph>
<glyph name="lslash" format="2">
  <advance width="584"/>
  <unicode hex="0142"/>
  <outline>
    <contour>
      <point x="74.0" y="476.0" type="line"/>
      <point x="51.0" y="399.0" type="line"/>
      <point x="291.0" y="573.0" type="line"/>
      <point x="335.0" y="590.0" type="line"/>
      <point x="594.0" y="777.0" type="line"/>
      <point x="618.0" y="854.0" type="line"/>
      <point x="359.0" y="667.0" type="line"/>
      <point x="315.0" y="650.0" type="line"/>
    </contour>
    <contour>
      <point x="409.0" y="1352.41059602649"/>
      <point x="467.0" y="1338.5827814569536"/>
      <point x="503.0" y="1330.0" type="curve"/>
      <point x="127.0" y="59.0" type="line" smooth="yes"/>
      <point x="110.0" y="0.0"/>
      <point x="110.0" y="-20.0"/>
      <point x="170.0" y="-20.0" type="curve" smooth="yes"/>
      <point x="240.0" y="-20.0"/>
      <point x="341.0" y="27.0"/>
      <point x="475.0" y="175.0" type="curve"/>
      <point x="457.0" y="194.0" type="line"/>
      <point x="305.0" y="49.0"/>
      <point x="219.0" y="39.0"/>
      <point x="154.0" y="46.0" type="curve"/>
      <point x="181.0" y="23.0" type="line"/>
      <point x="595.0" y="1419.0" type="line"/>
      <point x="578.0" y="1419.0" type="line"/>
      <point x="356.0" y="1379.0" type="line"/>
      <point x="352.0" y="1366.0" type="line"/>
    </contour>
  </outline>
</glyph>
<glyph name="eng" format="2">
  <advance width="921"/>
  <unicode hex="014B"/>
  <outline>
    <contour>
      <point x="200" y="-530" type="curve" smooth="yes"/>
      <point x="387" y="-530"/>
      <point x="537" y="-383"/>
      <point x="657" y="10" type="curve" smooth="yes"/>
      <point x="839" y="605" type="line" smooth="yes"/>
      <point x="853" y="654"/>
      <point x="863" y="704"/>
      <point x="863" y="743" type="curve" smooth="yes"/>
      <point x="863" y="807"/>
      <point x="830" y="872"/>
      <point x="719" y="872" type="curve" smooth="yes"/>
      <point x="589" y="872"/>
      <point x="450" y="759"/>
      <point x="259" y="377" type="curve"/>
      <point x="274" y="377" type="line"/>
      <point x="422" y="856" type="line"/>
      <point x="405" y="862"/>
      <point x="371" y="868"/>
      <point x="339" y="868" type="curve" smooth="yes"/>
      <point x="236" y="868"/>
      <point x="151" y="818"/>
      <point x="57" y="630" type="curve"/>
      <point x="79" y="619" type="line"/>
      <point x="150" y="741"/>
      <point x="223" y="811"/>
      <point x="302" y="811" type="curve" smooth="yes"/>
      <point x="324" y="811"/>
      <point x="335" y="809"/>
      <point x="342" y="807" type="curve"/>
      <point x="98" y="0" type="line"/>
      <point x="163" y="0" type="line"/>
      <point x="240" y="253" type="line" smooth="yes"/>
      <point x="330" y="549"/>
      <point x="539" y="814"/>
      <point x="712" y="814" type="curve" smooth="yes"/>
      <point x="776" y="814"/>
      <point x="799" y="778"/>
      <point x="799" y="729" type="curve" smooth="yes"/>
      <point x="799" y="699"/>
      <point x="793" y="665"/>
      <point x="780" y="624" type="curve" smooth="yes"/>
      <point x="577" y="-37" type="line" smooth="yes"/>
      <point x="471" y="-382"/>
      <point x="380" y="-474"/>
      <point x="269" y="-474" type="curve" smooth="yes"/>
      <point x="232" y="-474"/>
      <point x="204.0" y="-460.0"/>
      <point x="183" y="-447" type="curve" smooth="yes"/>
      <point x="162" y="-434"/>
      <point x="149" y="-422"/>
      <point x="140" y="-422" type="curve" smooth="yes"/>
      <point x="121" y="-422"/>
      <point x="100" y="-440"/>
      <point x="100" y="-471" type="curve" smooth="yes"/>
      <point x="100" y="-501"/>
      <point x="131" y="-530"/>
    </contour>
  </outline>
</glyph>
<glyph name="OE" format="2">
  <advance width="1979"/>
  <unicode hex="0152"/>
  <outline>
    <contour>
      <point x="1340.0" y="1340.0" type="line"/>
      <point x="930.0" y="0.0" type="line"/>
      <point x="1002.0" y="0.0" type="line"/>
      <point x="1412.0" y="1340.0" type="line"/>
    </contour>
    <contour>
      <point x="1070.0" y="1340.0" type="line" smooth="yes"/>
      <point x="492.0" y="1340.0"/>
      <point x="165.0" y="976.0"/>
      <point x="165.0" y="496.0" type="curve" smooth="yes"/>
      <point x="165.0" y="187.0"/>
      <point x="361.0" y="0.0"/>
      <point x="766.0" y="0.0" type="curve" smooth="yes"/>
      <point x="1627.0" y="0.0" type="line"/>
      <point x="1687.0" y="-46.0" type="line"/>
      <point x="1695.0" y="-46.0" type="line"/>
      <point x="1906.0" y="338.0" type="line"/>
      <point x="1887.0" y="349.0" type="line"/>
      <point x="1610.0" y="17.0" type="line"/>
      <point x="1682.0" y="42.0" type="line"/>
      <point x="808.0" y="42.0" type="line"/>
      <point x="420.0" y="42.0"/>
      <point x="243.0" y="192.0"/>
      <point x="243.0" y="511.0" type="curve" smooth="yes"/>
      <point x="243.0" y="880.0"/>
      <point x="456.0" y="1298.0"/>
      <point x="1104.0" y="1298.0" type="curve" smooth="yes"/>
      <point x="2025.0" y="1298.0" type="line"/>
      <point x="1981.0" y="1313.0" type="line"/>
      <point x="2010.0" y="1004.0" type="line"/>
      <point x="2033.0" y="1005.0" type="line"/>
      <point x="2084.0" y="1377.0" type="line"/>
      <point x="2075.0" y="1377.0" type="line"/>
      <point x="1999.0" y="1340.0" type="line"/>
    </contour>
    <contour>
      <point x="1607.0" y="434.0" type="line"/>
      <point x="1675.0" y="701.0" type="line"/>
      <point x="1771.0" y="969.0" type="line"/>
      <point x="1747.0" y="969.0" type="line"/>
      <point x="1623.0" y="732.0" type="line"/>
      <point x="1202.0" y="720.0" type="line"/>
      <point x="1189.0" y="682.0" type="line"/>
      <point x="1606.0" y="673.0" type="line"/>
      <point x="1583.0" y="434.0" type="line"/>
    </contour>
  </outline>
</glyph>
<glyph name="uni0163" format="2">
  <advance width="543"/>
  <unicode hex="0163"/>
  <outline>
    <contour>
      <point x="144.0" y="807.0" type="line"/>
      <point x="564.0" y="807.0" type="line"/>
      <point x="573.0" y="852.0" type="line"/>
      <point x="157.0" y="852.0" type="line"/>
    </contour>
    <contour>
      <point x="206.0" y="230.0" type="curve" smooth="yes"/>
      <point x="429.0" y="1026.0" type="line"/>
      <point x="364.0" y="1026.0" type="line"/>
      <point x="134.0" y="204.0" type="line" smooth="yes"/>
      <point x="118.0" y="147.0"/>
      <point x="110.0" y="103.0"/>
      <point x="110.0" y="70.0" type="curve" smooth="yes"/>
      <point x="110.0" y="6.0"/>
      <point x="138.0" y="-20.0"/>
      <point x="190.0" y="-20.0" type="curve" smooth="yes"/>
      <point x="259.0" y="-20.0"/>
      <point x="372.0" y="58.0"/>
      <point x="488.0" y="249.0" type="curve"/>
      <point x="463.0" y="265.0" type="line"/>
      <point x="377.0" y="127.0"/>
      <point x="273.0" y="38.0"/>
      <point x="215.0" y="38.0" type="curve" smooth="yes"/>
      <point x="191.0" y="38.0"/>
      <point x="178.0" y="50.0"/>
      <point x="178.0" y="86.0" type="curve" smooth="yes"/>
      <point x="178.0" y="115.0"/>
      <point x="187.0" y="161.0"/>
    </contour>
    <contour>
      <point x="25.0" y="-530.0" type="curve" smooth="yes"/>
      <point x="174.0" y="-530.0"/>
      <point x="282.0" y="-438.0"/>
      <point x="282.0" y="-317.0" type="curve" smooth="yes"/>
      <point x="282.0" y="-257.0"/>
      <point x="231.0" y="-195.0"/>
      <point x="101.0" y="-156.0" type="curve"/>
      <point x="109.0" y="-176.0" type="line"/>
      <point x="330.0" y="53.0" type="line"/>
      <point x="288.0" y="53.0" type="line"/>
      <point x="38.0" y="-210.0" type="line"/>
      <point x="37.0" y="-214.0" type="line"/>
      <point x="170.0" y="-250.0"/>
      <point x="221.0" y="-298.0"/>
      <point x="221.0" y="-354.0" type="curve" smooth="yes"/>
      <point x="221.0" y="-433.0"/>
      <point x="159.0" y="-490.0"/>
      <point x="62.0" y="-490.0" type="curve" smooth="yes"/>
      <point x="-11.0" y="-490.0"/>
      <point x="-20.0" y="-428.0"/>
      <point x="-62.0" y="-428.0" type="curve" smooth="yes"/>
      <point x="-81.0" y="-428.0"/>
      <point x="-100.0" y="-446.0"/>
      <point x="-100.0" y="-470.0" type="curve" smooth="yes"/>
      <point x="-100.0" y="-503.0"/>
      <point x="-67.0" y="-530.0"/>
    </contour>
  </outline>
</glyph>
<glyph name="tbar" format="2">
  <advance width="560"/>
  <unicode hex="0167"/>
  <outline>
    <contour>
      <point x="61.0" y="472.0" type="line"/>
      <point x="481.0" y="472.0" type="line"/>
      <point x="498.0" y="525.0" type="line"/>
      <point x="78.0" y="525.0" type="line"/>
    </contour>
    <contour>
      <point x="154.0" y="807.0" type="line"/>
      <point x="574.0" y="807.0" type="line"/>
      <point x="583.0" y="852.0" type="line"/>
      <point x="167.0" y="852.0" type="line"/>
    </contour>
    <contour>
      <point x="188.0" y="86.0" type="curve" smooth="yes"/>
      <point x="188.0" y="115.0"/>
      <point x="197.0" y="161.0"/>
      <point x="216.0" y="230.0" type="curve" smooth="yes"/>
      <point x="439.0" y="1026.0" type="line"/>
      <point x="374.0" y="1026.0" type="line"/>
      <point x="144.0" y="204.0" type="line" smooth="yes"/>
      <point x="128.0" y="147.0"/>
      <point x="120.0" y="103.0"/>
      <point x="120.0" y="70.0" type="curve" smooth="yes"/>
      <point x="120.0" y="6.0"/>
      <point x="148.0" y="-20.0"/>
      <point x="200.0" y="-20.0" type="curve" smooth="yes"/>
      <point x="269.0" y="-20.0"/>
      <point x="382.0" y="58.0"/>
      <point x="498.0" y="249.0" type="curve"/>
      <point x="473.0" y="265.0" type="line"/>
      <point x="387.0" y="127.0"/>
      <point x="283.0" y="38.0"/>
      <point x="225.0" y="38.0" type="curve" smooth="yes"/>
      <point x="201.0" y="38.0"/>
      <point x="188.0" y="50.0"/>
    </contour>
  </outline>
</glyph>
<glyph name="uogonek" format="2">
  <advance width="932"/>
  <unicode hex="0173"/>
  <outline>
    <contour>
      <point x="919.0" y="175.0" type="curve"/>
      <point x="902.0" y="194.0" type="line"/>
      <point x="746.0" y="49.0"/>
      <point x="659.0" y="39.0"/>
      <point x="595.0" y="46.0" type="curve"/>
      <point x="618.0" y="24.0" type="line"/>
      <point x="868.0" y="852.0" type="line"/>
      <point x="803.0" y="852.0" type="line"/>
      <point x="726.0" y="599.0" type="line" smooth="yes"/>
      <point x="635.0" y="299.0"/>
      <point x="429.0" y="34.0"/>
      <point x="273.0" y="34.0" type="curve" smooth="yes"/>
      <point x="217.0" y="34.0"/>
      <point x="186.0" y="57.0"/>
      <point x="186.0" y="108.0" type="curve" smooth="yes"/>
      <point x="186.0" y="130.0"/>
      <point x="191.0" y="157.0"/>
      <point x="203.0" y="189.0" type="curve" smooth="yes"/>
      <point x="421.0" y="793.0" type="line" smooth="yes"/>
      <point x="439.0" y="844.0"/>
      <point x="411.0" y="872.0"/>
      <point x="378.0" y="872.0" type="curve" smooth="yes"/>
      <point x="313.0" y="872.0"/>
      <point x="201.0" y="824.0"/>
      <point x="55.0" y="652.0" type="curve"/>
      <point x="73.0" y="634.0" type="line"/>
      <point x="234.0" y="796.0"/>
      <point x="324.0" y="812.0"/>
      <point x="392.0" y="807.0" type="curve"/>
      <point x="369.0" y="828.0" type="line"/>
      <point x="140.0" y="196.0" type="line" smooth="yes"/>
      <point x="127.0" y="159.0"/>
      <point x="120.0" y="127.0"/>
      <point x="120.0" y="99.0" type="curve" smooth="yes"/>
      <point x="120.0" y="21.0"/>
      <point x="171.0" y="-20.0"/>
      <point x="258.0" y="-20.0" type="curve" smooth="yes"/>
      <point x="388.0" y="-20.0"/>
      <point x="523.0" y="97.0"/>
      <point x="707.0" y="475.0" type="curve"/>
      <point x="692.0" y="475.0" type="line"/>
      <point x="563.0" y="59.0" type="line" smooth="yes"/>
      <point x="544.0" y="-2.0"/>
      <point x="547.0" y="-20.0"/>
      <point x="609.0" y="-20.0" type="curve" smooth="yes"/>
      <point x="651.0" y="-20.0"/>
      <point x="704.0" y="-3.0"/>
      <point x="769.0" y="41.0" type="curve"/>
      <point x="760.0" y="52.0" type="line"/>
      <point x="564.0" y="-140.0" type="line" smooth="yes"/>
      <point x="417.0" y="-283.0"/>
      <point x="394.0" y="-336.0"/>
      <point x="394.0" y="-404.0" type="curve" smooth="yes"/>
      <point x="394.0" y="-481.0"/>
      <point x="445.0" y="-530.0"/>
      <point x="533.0" y="-530.0" type="curve" smooth="yes"/>
      <point x="598.0" y="-530.0"/>
      <point x="649.0" y="-499.0"/>
      <point x="736.0" y="-406.0" type="curve"/>
      <point x="723.0" y="-392.0" type="line"/>
      <point x="655.0" y="-456.0"/>
      <point x="611.0" y="-474.0"/>
      <point x="558.0" y="-474.0" type="curve" smooth="yes"/>
      <point x="506.0" y="-474.0"/>
      <point x="460.0" y="-447.0"/>
      <point x="460.0" y="-384.0" type="curve" smooth="yes"/>
      <point x="460.0" y="-324.0"/>
      <point x="480.0" y="-275.0"/>
      <point x="626.0" y="-125.0" type="curve" smooth="yes"/>
      <point x="770.0" y="23.0" type="line" smooth="yes"/>
      <point x="807.0" y="60.0"/>
      <point x="872.0" y="126.0"/>
    </contour>
  </outline>
</glyph>
<glyph name="uni01EA" format="2">
  <advance width="1437"/>
  <unicode hex="01EA"/>
  <outline>
    <contour>
      <point x="239.0" y="476.0" type="curve" smooth="yes"/>
      <point x="239.0" y="892.0"/>
      <point x="517.0" y="1321.0"/>
      <point x="942.0" y="1321.0" type="curve" smooth="yes"/>
      <point x="1216.0" y="1321.0"/>
      <point x="1348.0" y="1139.0"/>
      <point x="1348.0" y="864.0" type="curve" smooth="yes"/>
      <point x="1348.0" y="448.0"/>
      <point x="1070.0" y="19.0"/>
      <point x="645.0" y="19.0" type="curve" smooth="yes"/>
      <point x="371.0" y="19.0"/>
      <point x="239.0" y="201.0"/>
    </contour>
    <contour>
      <point x="1425.0" y="856.0" type="curve" smooth="yes"/>
      <point x="1425.0" y="1144.0"/>
      <point x="1271.0" y="1360.0"/>
      <point x="943.0" y="1360.0" type="curve" smooth="yes"/>
      <point x="485.0" y="1360.0"/>
      <point x="162.0" y="938.0"/>
      <point x="162.0" y="484.0" type="curve" smooth="yes"/>
      <point x="162.0" y="196.0"/>
      <point x="316.0" y="-20.0"/>
      <point x="644.0" y="-20.0" type="curve" smooth="yes"/>
      <point x="1102.0" y="-20.0"/>
      <point x="1425.0" y="402.0"/>
    </contour>
    <contour>
      <point x="359.0" y="-382.0" type="curve" smooth="yes"/>
      <point x="359.0" y="-322.0"/>
      <point x="387.0" y="-276.0"/>
      <point x="505.0" y="-127.0" type="curve" smooth="yes"/>
      <point x="605.0" y="0.0" type="line"/>
      <point x="571.0" y="0.0" type="line"/>
      <point x="445.0" y="-145.0" type="line" smooth="yes"/>
      <point x="320.0" y="-289.0"/>
      <point x="294.0" y="-347.0"/>
      <point x="294.0" y="-404.0" type="curve" smooth="yes"/>
      <point x="294.0" y="-481.0"/>
      <point x="345.0" y="-530.0"/>
      <point x="433.0" y="-530.0" type="curve" smooth="yes"/>
      <point x="498.0" y="-530.0"/>
      <point x="549.0" y="-499.0"/>
      <point x="636.0" y="-406.0" type="curve"/>
      <point x="623.0" y="-392.0" type="line"/>
      <point x="555.0" y="-456.0"/>
      <point x="511.0" y="-474.0"/>
      <point x="458.0" y="-474.0" type="curve" smooth="yes"/>
      <point x="406.0" y="-474.0"/>
      <point x="359.0" y="-445.0"/>
    </contour>
  </outline>
</glyph>
<glyph name="gravecomb" format="2">
  <unicode hex="0300"/>
  <anchor x="130" y="852.0" name="_top"/>
  <anchor x="279" y="1340" name="top"/>
  <outline>
    <contour>
      <point x="211.0" y="1009.0" type="line"/>
      <point x="113.0" y="1340.0" type="line"/>
      <point x="28.0" y="1340.0" type="line"/>
      <point x="28.0" y="1326.0" type="line"/>
      <point x="184.0" y="1009.0" type="line"/>
    </contour>
  </outline>
</glyph>
<glyph name="uni0302" format="2">
  <unicode hex="0302"/>
  <anchor x="130" y="852.0" name="_top"/>
  <anchor x="279" y="1340" name="top"/>
  <outline>
    <contour>
      <point x="-62.0" y="1009.0" type="line"/>
      <point x="-16.0" y="1009.0" type="line"/>
      <point x="293.0" y="1283.0" type="line"/>
      <point x="248.0" y="1283.0" type="line"/>
      <point x="383.0" y="1009.0" type="line"/>
      <point x="419.0" y="1009.0" type="line"/>
      <point x="303.0" y="1340.0" type="line"/>
      <point x="255.0" y="1340.0" type="line"/>
    </contour>
  </outline>
</glyph>
<glyph name="tildecomb" format="2">
  <unicode hex="0303"/>
  <anchor x="132" y="852.0" name="_top"/>
  <anchor x="255" y="1255" name="top"/>
  <outline>
    <contour>
      <point x="510.0" y="1316.0" type="curve"/>
      <point x="478.0" y="1316.0" type="line"/>
      <point x="409.0" y="1143.0"/>
      <point x="364.0" y="1095.0"/>
      <point x="324.0" y="1095.0" type="curve" smooth="yes"/>
      <point x="259.0" y="1095.0"/>
      <point x="246.0" y="1326.0"/>
      <point x="152.0" y="1326.0" type="curve" smooth="yes"/>
      <point x="87.0" y="1326.0"/>
      <point x="29.0" y="1262.0"/>
      <point x="-52.0" y="1033.0" type="curve"/>
      <point x="-20.0" y="1033.0" type="line"/>
      <point x="49.0" y="1206.0"/>
      <point x="94.0" y="1254.0"/>
      <point x="134.0" y="1254.0" type="curve" smooth="yes"/>
      <point x="199.0" y="1254.0"/>
      <point x="212.0" y="1023.0"/>
      <point x="306.0" y="1023.0" type="curve" smooth="yes"/>
      <point x="371.0" y="1023.0"/>
      <point x="429.0" y="1087.0"/>
    </contour>
  </outline>
</glyph>
<glyph name="uni0306" format="2">
  <unicode hex="0306"/>
  <anchor x="130" y="852.0" name="_top"/>
  <anchor x="279" y="1340" name="top"/>
  <outline>
    <contour>
      <point x="191.0" y="1070.0" type="curve" smooth="yes"/>
      <point x="83.0" y="1070.0"/>
      <point x="48.0" y="1142.0"/>
      <point x="67.0" y="1340.0" type="curve"/>
      <point x="39.0" y="1340.0" type="line"/>
      <point x="6.0" y="1064.0"/>
      <point x="52.0" y="999.0"/>
      <point x="181.0" y="999.0" type="curve" smooth="yes"/>
      <point x="310.0" y="999.0"/>
      <point x="384.0" y="1064.0"/>
      <point x="520.0" y="1340.0" type="curve"/>
      <point x="485.0" y="1340.0" type="line"/>
      <point x="374.0" y="1130.0"/>
      <point x="299.0" y="1070.0"/>
    </contour>
  </outline>
</glyph>
<glyph name="uni030B" format="2">
  <unicode hex="030B"/>
  <anchor x="130" y="852.0" name="_top"/>
  <anchor x="279" y="1340" name="top"/>
  <anchor x="130" y="852.0" name="_top"/>
  <anchor x="279" y="1340" name="top"/>
  <outline>
    <contour>
      <point x="262.0" y="1009.0" type="line"/>
      <point x="308.0" y="1009.0" type="line"/>
      <point x="697.0" y="1326.0" type="line"/>
      <point x="701.0" y="1340.0" type="line"/>
      <point x="601.0" y="1340.0" type="line"/>
    </contour>
    <contour>
      <point x="38.0" y="1009.0" type="line"/>
      <point x="78.0" y="1009.0" type="line"/>
      <point x="379.0" y="1326.0" type="line"/>
      <point x="384.0" y="1340.0" type="line"/>
      <point x="289.0" y="1340.0" type="line"/>
    </contour>
  </outline>
</glyph>
<glyph name="uni030F" format="2">
  <unicode hex="030F"/>
  <anchor x="130" y="852.0" name="_top"/>
  <anchor x="279" y="1340" name="top"/>
  <outline>
    <contour>
      <point x="88.0" y="1009.0" type="line"/>
      <point x="-52.0" y="1340.0" type="line"/>
      <point x="-144.0" y="1340.0" type="line"/>
      <point x="-144.0" y="1326.0" type="line"/>
      <point x="55.0" y="1009.0" type="line"/>
    </contour>
    <contour>
      <point x="315.0" y="1009.0" type="line"/>
      <point x="253.0" y="1340.0" type="line"/>
      <point x="166.0" y="1340.0" type="line"/>
      <point x="166.0" y="1326.0" type="line"/>
      <point x="288.0" y="1009.0" type="line"/>
    </contour>
  </outline>
</glyph>
<glyph name="uni0324" format="2">
  <unicode hex="0324"/>
  <guideline x="-130" y="-1" angle="73" identifier="itirtbQmWn"/>
  <anchor x="-130" y="0" name="_bottom"/>
  <anchor x="-292" y="-530.0" name="bottom"/>
  <outline>
    <contour>
      <point x="-371.0" y="-332.0" type="curve" smooth="yes"/>
      <point x="-324.0" y="-332.0"/>
      <point x="-296.0" y="-295.0"/>
      <point x="-296.0" y="-256.0" type="curve" smooth="yes"/>
      <point x="-296.0" y="-216.0"/>
      <point x="-324.0" y="-179.0"/>
      <point x="-371.0" y="-179.0" type="curve" smooth="yes"/>
      <point x="-418.0" y="-179.0"/>
      <point x="-446.0" y="-216.0"/>
      <point x="-446.0" y="-256.0" type="curve" smooth="yes"/>
      <point x="-446.0" y="-295.0"/>
      <point x="-418.0" y="-332.0"/>
    </contour>
    <contour>
      <point x="-45.0" y="-332.0" type="curve" smooth="yes"/>
      <point x="2.0" y="-332.0"/>
      <point x="30.0" y="-295.0"/>
      <point x="30.0" y="-256.0" type="curve" smooth="yes"/>
      <point x="30.0" y="-216.0"/>
      <point x="2.0" y="-179.0"/>
      <point x="-45.0" y="-179.0" type="curve" smooth="yes"/>
      <point x="-92.0" y="-179.0"/>
      <point x="-120.0" y="-216.0"/>
      <point x="-120.0" y="-256.0" type="curve" smooth="yes"/>
      <point x="-120.0" y="-295.0"/>
      <point x="-92.0" y="-332.0"/>
    </contour>
  </outline>
</glyph>
<glyph name="uni0327" format="2">
  <unicode hex="0327"/>
  <anchor x="-130" y="0" name="_bottom"/>
  <anchor x="-260" y="-530" name="bottom"/>
  <outline>
    <contour>
      <point x="-367.0" y="-530.0" type="curve" smooth="yes"/>
      <point x="-218.0" y="-530.0"/>
      <point x="-110.0" y="-438.0"/>
      <point x="-110.0" y="-317.0" type="curve" smooth="yes"/>
      <point x="-110.0" y="-257.0"/>
      <point x="-161.0" y="-195.0"/>
      <point x="-291.0" y="-156.0" type="curve"/>
      <point x="-283.0" y="-176.0" type="line"/>
      <point x="-104.0" y="0.0" type="line"/>
      <point x="-146.0" y="0.0" type="line"/>
      <point x="-354.0" y="-210.0" type="line"/>
      <point x="-355.0" y="-214.0" type="line"/>
      <point x="-222.0" y="-250.0"/>
      <point x="-171.0" y="-298.0"/>
      <point x="-171.0" y="-354.0" type="curve" smooth="yes"/>
      <point x="-171.0" y="-433.0"/>
      <point x="-233.0" y="-490.0"/>
      <point x="-330.0" y="-490.0" type="curve" smooth="yes"/>
      <point x="-403.0" y="-490.0"/>
      <point x="-412.0" y="-428.0"/>
      <point x="-454.0" y="-428.0" type="curve" smooth="yes"/>
      <point x="-473.0" y="-428.0"/>
      <point x="-492.0" y="-446.0"/>
      <point x="-492.0" y="-470.0" type="curve" smooth="yes"/>
      <point x="-492.0" y="-503.0"/>
      <point x="-459.0" y="-530.0"/>
    </contour>
  </outline>
</glyph>
<glyph name="uni0331" format="2">
  <unicode hex="0331"/>
  <anchor x="-130" y="0" name="_bottom"/>
  <anchor x="-292" y="-530.0" name="bottom"/>
  <outline>
    <contour>
      <point x="-434.0" y="-282.0" type="line"/>
      <point x="1.0" y="-282.0" type="line"/>
      <point x="18.0" y="-228.0" type="line"/>
      <point x="-417.0" y="-228.0" type="line"/>
    </contour>
  </outline>
</glyph>
<glyph name="uni0335" format="2">
  <unicode hex="0335"/>
  <anchor x="199" y="1078" name="_center"/>
  <outline>
    <contour>
      <point x="-66.0" y="1052.0" type="line"/>
      <point x="449.0" y="1052.0" type="line"/>
      <point x="465.0" y="1105.0" type="line"/>
      <point x="-50.0" y="1105.0" type="line"/>
    </contour>
  </outline>
</glyph>
<glyph name="quoteright" format="2">
  <advance width="373"/>
  <unicode hex="2019"/>
  <outline>
    <contour>
      <point x="255.0" y="979.0" type="curve"/>
      <point x="269.0" y="951.0" type="line"/>
      <point x="472.0" y="1061.0"/>
      <point x="536.0" y="1163.0"/>
      <point x="536.0" y="1268.0" type="curve" smooth="yes"/>
      <point x="536.0" y="1319.0"/>
      <point x="511.0" y="1350.0"/>
      <point x="467.0" y="1350.0" type="curve" smooth="yes"/>
      <point x="411.0" y="1350.0"/>
      <point x="376.0" y="1311.0"/>
      <point x="376.0" y="1272.0" type="curve" smooth="yes"/>
      <point x="376.0" y="1251.0"/>
      <point x="456.0" y="1245.0"/>
      <point x="456.0" y="1185.0" type="curve" smooth="yes"/>
      <point x="456.0" y="1126.0"/>
      <point x="400.0" y="1058.0"/>
    </contour>
  </outline>
</glyph>
<glyph name="dagger" format="2">
  <advance width="683"/>
  <unicode hex="2020"/>
  <outline>
    <contour>
      <point x="577.0" y="1149.0" type="line"/>
      <point x="671.0" y="1399.0" type="line"/>
      <point x="595.0" y="1399.0" type="line"/>
      <point x="537.0" y="1149.0" type="line"/>
      <point x="434.0" y="879.0" type="line"/>
      <point x="398.0" y="651.0" type="line"/>
      <point x="411.0" y="651.0" type="line"/>
      <point x="514.0" y="879.0" type="line"/>
    </contour>
    <contour>
      <point x="563.0" y="1170.0" type="line"/>
      <point x="332.0" y="1189.0" type="line"/>
      <point x="307.0" y="1109.0" type="line"/>
      <point x="551.0" y="1128.0" type="line"/>
      <point x="782.0" y="1109.0" type="line"/>
      <point x="807.0" y="1189.0" type="line"/>
    </contour>
  </outline>
</glyph>
<glyph name="guilsinglright" format="2">
  <advance width="545"/>
  <unicode hex="203A"/>
  <outline>
    <contour>
      <point x="381.0" y="418.0" type="line"/>
      <point x="404.0" y="491.0" type="line"/>
      <point x="-7.0" y="90.0" type="line"/>
      <point x="12.0" y="66.0" type="line"/>
      <point x="451.0" y="421.0" type="line"/>
      <point x="460.0" y="451.0" type="line"/>
      <point x="235.0" y="806.0" type="line"/>
      <point x="207.0" y="791.0" type="line"/>
    </contour>
  </outline>
</glyph>
<glyph name="minus" format="2">
  <advance width="1000"/>
  <unicode hex="2212"/>
  <outline>
    <contour>
      <point x="152.0" y="456.0" type="line"/>
      <point x="139.0" y="412.0" type="line"/>
      <point x="853.0" y="412.0" type="line"/>
      <point x="866.0" y="456.0" type="line"/>
    </contour>
  </outline>
</glyph>
<glyph name="notequal" format="2">
  <advance width="1000"/>
  <unicode hex="2260"/>
  <outline>
    <contour>
      <point x="15.0" y="0.0" type="line"/>
      <point x="78.0" y="0.0" type="line"/>
      <point x="989.0" y="852.0" type="line"/>
      <point x="926.0" y="852.0" type="line"/>
    </contour>
    <contour>
      <point x="207.0" y="630.0" type="line"/>
      <point x="194.0" y="586.0" type="line"/>
      <point x="908.0" y="586.0" type="line"/>
      <point x="921.0" y="630.0" type="line"/>
    </contour>
    <contour>
      <point x="103.0" y="290.0" type="line"/>
      <point x="90.0" y="246.0" type="line"/>
      <point x="804.0" y="246.0" type="line"/>
      <point x="817.0" y="290.0" type="line"/>
    </contour>
  </outline>
</glyph>
<glyph name="greaterequal" format="2">
  <advance width="1000"/>
  <unicode hex="2265"/>
  <outline>
    <contour>
      <point x="841.0" y="44.0" type="line"/>
      <point x="-59.0" y="44.0" type="line"/>
      <point x="-72.0" y="0.0" type="line"/>
      <point x="828.0" y="0.0" type="line"/>
    </contour>
    <contour>
      <point x="951.0" y="560.0" type="line"/>
      <point x="5.0" y="256.0" type="line"/>
      <point x="-11.0" y="200.0" type="line"/>
      <point x="989.0" y="529.0" type="line"/>
      <point x="1000.0" y="565.0" type="line"/>
      <point x="200.0" y="892.0" type="line"/>
      <point x="185.0" y="844.0" type="line"/>
      <point x="946.0" y="541.0" type="line"/>
    </contour>
  </outline>
</glyph>
<glyph name="uni27E8" format="2">
  <advance width="1000"/>
  <unicode hex="27E8"/>
  <outline>
    <contour>
      <point x="338.0" y="643.0" type="line"/>
      <point x="1069.0" y="1340.0" type="line"/>
      <point x="1003.0" y="1340.0" type="line"/>
      <point x="309.0" y="675.0" type="line"/>
      <point x="306.0" y="664.0" type="line"/>
      <point x="612.0" y="0.0" type="line"/>
      <point x="660.0" y="0.0" type="line"/>
      <point x="346.0" y="686.0" type="line"/>
    </contour>
  </outline>
</glyph>
<glyph name="uni27E9" format="2">
  <advance width="1000"/>
  <unicode hex="27E9"/>
  <outline>
    <contour>
      <point x="812.0" y="697.0" type="line"/>
      <point x="81.0" y="0.0" type="line"/>
      <point x="147.0" y="0.0" type="line"/>
      <point x="841.0" y="665.0" type="line"/>
      <point x="844.0" y="676.0" type="line"/>
      <point x="538.0" y="1340.0" type="line"/>
      <point x="490.0" y="1340.0" type="line"/>
      <point x="804.0" y="654.0" type="line"/>
    </contour>
  </outline>
</glyph>
<glyph name="fi" format="2">
  <advance width="906"/>
  <unicode hex="FB01"/>
  <outline>
    <contour>
      <point x="113.0" y="807.0" type="line"/>
      <point x="821.0" y="807.0" type="line"/>
      <point x="773.0" y="829.0" type="line"/>
      <point x="509.0" y="59.0" type="line" smooth="yes"/>
      <point x="489.0" y="0.0"/>
      <point x="490.0" y="-20.0"/>
      <point x="550.0" y="-20.0" type="curve" smooth="yes"/>
      <point x="620.0" y="-20.0"/>
      <point x="722.0" y="27.0"/>
      <point x="860.0" y="175.0" type="curve"/>
      <point x="843.0" y="194.0" type="line"/>
      <point x="687.0" y="49.0"/>
      <point x="600.0" y="39.0"/>
      <point x="536.0" y="46.0" type="curve"/>
      <point x="562.0" y="23.0" type="line"/>
      <point x="853.0" y="872.0" type="line"/>
      <point x="839.0" y="872.0" type="line"/>
      <point x="801.0" y="859.0"/>
      <point x="757.0" y="852.0"/>
      <point x="708.0" y="852.0" type="curve" smooth="yes"/>
      <point x="122.0" y="852.0" type="line"/>
    </contour>
    <contour>
      <point x="229" y="75" type="curve" smooth="yes"/>
      <point x="423" y="983" type="line" smooth="yes"/>
      <point x="485" y="1273"/>
      <point x="610.0" y="1377.0"/>
      <point x="753" y="1377" type="curve" smooth="yes"/>
      <point x="800" y="1377"/>
      <point x="832" y="1357"/>
      <point x="864" y="1330" type="curve" smooth="yes"/>
      <point x="896" y="1303"/>
      <point x="914" y="1265"/>
      <point x="929" y="1265" type="curve" smooth="yes"/>
      <point x="964" y="1265"/>
      <point x="993" y="1285"/>
      <point x="993" y="1319" type="curve" smooth="yes"/>
      <point x="993" y="1369"/>
      <point x="939" y="1419"/>
      <point x="820" y="1419" type="curve" smooth="yes"/>
      <point x="598.0" y="1419.0"/>
      <point x="417" y="1288"/>
      <point x="338" y="914" type="curve" smooth="yes"/>
      <point x="145" y="4" type="line" smooth="yes"/>
      <point x="63" y="-382"/>
      <point x="-39" y="-486"/>
      <point x="-160" y="-486" type="curve" smooth="yes"/>
      <point x="-196" y="-486"/>
      <point x="-227" y="-476"/>
      <point x="-259" y="-446" type="curve" smooth="yes"/>
      <point x="-291" y="-416"/>
      <point x="-304" y="-393"/>
      <point x="-315" y="-393" type="curve" smooth="yes"/>
      <point x="-342" y="-393"/>
      <point x="-369" y="-413"/>
      <point x="-369" y="-440" type="curve" smooth="yes"/>
      <point x="-369" y="-484"/>
      <point x="-316" y="-530"/>
      <point x="-209" y="-530" type="curve" smooth="yes"/>
      <point x="-17" y="-530"/>
      <point x="130" y="-389"/>
    </contour>
  </outline>
</glyph>
<glyph name="f_f_i" format="2">
  <advance width="1327"/>
  <unicode hex="FB03"/>
  <outline>
    <contour>
      <point x="338.0" y="914.0" type="curve" smooth="yes"/>
      <point x="145.0" y="4.0" type="line" smooth="yes"/>
      <point x="63" y="-382"/>
      <point x="-39.0" y="-486.0"/>
      <point x="-160.0" y="-486.0" type="curve" smooth="yes"/>
      <point x="-196.0" y="-486.0"/>
      <point x="-227.0" y="-476.0"/>
      <point x="-259.0" y="-446.0" type="curve" smooth="yes"/>
      <point x="-291.0" y="-416.0"/>
      <point x="-304.0" y="-393.0"/>
      <point x="-315.0" y="-393.0" type="curve" smooth="yes"/>
      <point x="-342.0" y="-393.0"/>
      <point x="-369.0" y="-413.0"/>
      <point x="-369.0" y="-440.0" type="curve" smooth="yes"/>
      <point x="-369.0" y="-484.0"/>
      <point x="-316.0" y="-530.0"/>
      <point x="-209.0" y="-530.0" type="curve" smooth="yes"/>
      <point x="-17.0" y="-530.0"/>
      <point x="130" y="-389"/>
      <point x="229.0" y="75.0" type="curve" smooth="yes"/>
      <point x="423.0" y="983.0" type="line" smooth="yes"/>
      <point x="481" y="1255"/>
      <point x="613" y="1357"/>
      <point x="753.0" y="1357.0" type="curve" smooth="yes"/>
      <point x="848.0" y="1357.0"/>
      <point x="895.0" y="1329"/>
      <point x="935.0" y="1269.0" type="curve"/>
      <point x="992.0" y="1324.0" type="line"/>
      <point x="957.0" y="1370.0"/>
      <point x="902" y="1399"/>
      <point x="814.0" y="1399.0" type="curve" smooth="yes"/>
      <point x="596.0" y="1399.0"/>
      <point x="412" y="1265"/>
    </contour>
    <contour>
      <point x="759.0" y="914.0" type="curve" smooth="yes"/>
      <point x="566.0" y="4.0" type="line" smooth="yes"/>
      <point x="491" y="-348"/>
      <point x="390.0" y="-456.0"/>
      <point x="251.0" y="-456.0" type="curve" smooth="yes"/>
      <point x="164" y="-456"/>
      <point x="107.0" y="-417.0"/>
      <point x="70.0" y="-340.0" type="curve"/>
      <point x="14.0" y="-406.0" type="line"/>
      <point x="44.0" y="-462.0"/>
      <point x="111.0" y="-500.0"/>
      <point x="212.0" y="-500.0" type="curve" smooth="yes"/>
      <point x="404.0" y="-500.0"/>
      <point x="557.0" y="-359.0"/>
      <point x="650.0" y="75.0" type="curve" smooth="yes"/>
      <point x="844.0" y="983.0" type="line" smooth="yes"/>
      <point x="906" y="1273"/>
      <point x="1031.0" y="1377.0"/>
      <point x="1174.0" y="1377.0" type="curve" smooth="yes"/>
      <point x="1221.0" y="1377.0"/>
      <point x="1253.0" y="1357.0"/>
      <point x="1285.0" y="1330.0" type="curve" smooth="yes"/>
      <point x="1317.0" y="1303.0"/>
      <point x="1335.0" y="1265.0"/>
      <point x="1350.0" y="1265.0" type="curve" smooth="yes"/>
      <point x="1385.0" y="1265.0"/>
      <point x="1414.0" y="1285.0"/>
      <point x="1414.0" y="1319.0" type="curve" smooth="yes"/>
      <point x="1414.0" y="1369.0"/>
      <point x="1360.0" y="1419.0"/>
      <point x="1241.0" y="1419.0" type="curve" smooth="yes"/>
      <point x="1019.0" y="1419.0"/>
      <point x="838" y="1288"/>
    </contour>
    <contour>
      <point x="113.0" y="807.0" type="line"/>
      <point x="1242.0" y="807.0" type="line"/>
      <point x="1194.0" y="829.0" type="line"/>
      <point x="930.0" y="59.0" type="line" smooth="yes"/>
      <point x="910.0" y="0.0"/>
      <point x="911.0" y="-20.0"/>
      <point x="971.0" y="-20.0" type="curve" smooth="yes"/>
      <point x="1041.0" y="-20.0"/>
      <point x="1143.0" y="27.0"/>
      <point x="1281.0" y="175.0" type="curve"/>
      <point x="1264.0" y="194.0" type="line"/>
      <point x="1108.0" y="49.0"/>
      <point x="1021.0" y="39.0"/>
      <point x="957.0" y="46.0" type="curve"/>
      <point x="983.0" y="23.0" type="line"/>
      <point x="1274.0" y="872.0" type="line"/>
      <point x="1260.0" y="872.0" type="line"/>
      <point x="1222.0" y="859.0"/>
      <point x="1178.0" y="852.0"/>
      <point x="1129.0" y="852.0" type="curve" smooth="yes"/>
      <point x="122.0" y="852.0" type="line"/>
    </contour>
  </outline>
</glyph>
<glyph name="acutecomb.case" format="2">
  <anchor x="279" y="1340.0" name="_UCtop"/>
  <anchor x="394" y="1716" name="UCtop"/>
  <outline>
    <contour>
      <point x="291.0" y="1476.0" type="line"/>
      <point x="331.0" y="1476.0" type="line"/>
      <point x="644.0" y="1702.0" type="line"/>
      <point x="648.0" y="1716.0" type="line"/>
      <point x="546.0" y="1716.0" type="line"/>
    </contour>
  </outline>
</glyph>
<glyph name="colonmonetary.lf.1" format="2">
  <advance width="1015"/>
  <outline>
    <contour>
      <point x="848.0" y="1325.0" type="curve" smooth="yes"/>
      <point x="1031.0" y="1325.0"/>
      <point x="1047.0" y="1187.0"/>
      <point x="1111.0" y="1187.0" type="curve" smooth="yes"/>
      <point x="1143.0" y="1187.0"/>
      <point x="1164.0" y="1212.0"/>
      <point x="1164.0" y="1238.0" type="curve" smooth="yes"/>
      <point x="1164.0" y="1296.0"/>
      <point x="1074.0" y="1360.0"/>
      <point x="882.0" y="1360.0" type="curve" smooth="yes"/>
      <point x="437.0" y="1360.0"/>
      <point x="150.0" y="822.0"/>
      <point x="150.0" y="373.0" type="curve" smooth="yes"/>
      <point x="150.0" y="99.0"/>
      <point x="282.0" y="-19.0"/>
      <point x="468.0" y="-19.0" type="curve" smooth="yes"/>
      <point x="616.0" y="-19.0"/>
      <point x="704.0" y="24.0"/>
      <point x="856.0" y="143.0" type="curve"/>
      <point x="844.0" y="163.0" type="line"/>
      <point x="703.0" y="63.0"/>
      <point x="616.0" y="42.0"/>
      <point x="498.0" y="42.0" type="curve" smooth="yes"/>
      <point x="323.0" y="42.0"/>
      <point x="217.0" y="154.0"/>
      <point x="217.0" y="389.0" type="curve" smooth="yes"/>
      <point x="217.0" y="791.0"/>
      <point x="473.0" y="1325.0"/>
    </contour>
    <contour>
      <point x="828.0" y="1336.0" type="line"/>
      <point x="931.0" y="1535.0" type="line"/>
      <point x="879.0" y="1535.0" type="line"/>
      <point x="776.0" y="1336.0" type="line"/>
    </contour>
    <contour>
      <point x="1042.0" y="1303.0" type="line"/>
      <point x="1162.0" y="1535.0" type="line"/>
      <point x="1110.0" y="1535.0" type="line"/>
      <point x="990.0" y="1303.0" type="line"/>
    </contour>
    <contour>
      <point x="46.0" y="-195.0" type="line"/>
      <point x="97.0" y="-195.0" type="line"/>
      <point x="271.0" y="142.0" type="line"/>
      <point x="220.0" y="142.0" type="line"/>
    </contour>
    <contour>
      <point x="277.0" y="-195.0" type="line"/>
      <point x="329.0" y="-195.0" type="line"/>
      <point x="442.0" y="24.0" type="line"/>
      <point x="390.0" y="24.0" type="line"/>
    </contour>
  </outline>
</glyph>
<glyph name="dollar.lf.1" format="2">
  <advance width="925"/>
  <outline>
    <contour>
      <point x="328.0" y="11.0" type="curve" smooth="yes"/>
      <point x="139.0" y="11.0"/>
      <point x="94.0" y="166.0"/>
      <point x="27.0" y="166.0" type="curve" smooth="yes"/>
      <point x="-4.0" y="166.0"/>
      <point x="-21.0" y="142.0"/>
      <point x="-21.0" y="116.0" type="curve" smooth="yes"/>
      <point x="-21.0" y="55.0"/>
      <point x="62.0" y="-20.0"/>
      <point x="321.0" y="-20.0" type="curve" smooth="yes"/>
      <point x="606.0" y="-20.0"/>
      <point x="829.0" y="128.0"/>
      <point x="829.0" y="406.0" type="curve" smooth="yes"/>
      <point x="829.0" y="768.0"/>
      <point x="338.0" y="686.0"/>
      <point x="338.0" y="1014.0" type="curve" smooth="yes"/>
      <point x="338.0" y="1191.0"/>
      <point x="465.0" y="1327.0"/>
      <point x="705.0" y="1327.0" type="curve" smooth="yes"/>
      <point x="887.0" y="1327.0"/>
      <point x="934.0" y="1164.0"/>
      <point x="997.0" y="1164.0" type="curve" smooth="yes"/>
      <point x="1031.0" y="1164.0"/>
      <point x="1046.0" y="1189.0"/>
      <point x="1046.0" y="1211.0" type="curve" smooth="yes"/>
      <point x="1046.0" y="1266.0"/>
      <point x="953.0" y="1360.0"/>
      <point x="723.0" y="1360.0" type="curve" smooth="yes"/>
      <point x="444.0" y="1360.0"/>
      <point x="284.0" y="1192.0"/>
      <point x="284.0" y="989.0" type="curve" smooth="yes"/>
      <point x="284.0" y="632.0"/>
      <point x="771.0" y="713.0"/>
      <point x="771.0" y="377.0" type="curve" smooth="yes"/>
      <point x="771.0" y="148.0"/>
      <point x="598.0" y="11.0"/>
    </contour>
    <contour>
      <point x="656.0" y="1335.0" type="line"/>
      <point x="717.0" y="1535.0" type="line"/>
      <point x="667.0" y="1535.0" type="line"/>
      <point x="606.0" y="1335.0" type="line"/>
    </contour>
    <contour>
      <point x="879.0" y="1322.0" type="line"/>
      <point x="944.0" y="1535.0" type="line"/>
      <point x="894.0" y="1535.0" type="line"/>
      <point x="829.0" y="1322.0" type="line"/>
    </contour>
    <contour>
      <point x="198.0" y="1.0" type="line"/>
      <point x="138.0" y="-195.0" type="line"/>
      <point x="188.0" y="-195.0" type="line"/>
      <point x="248.0" y="1.0" type="line"/>
    </contour>
    <contour>
      <point x="427.0" y="7.0" type="line"/>
      <point x="365.0" y="-195.0" type="line"/>
      <point x="415.0" y="-195.0" type="line"/>
      <point x="477.0" y="7.0" type="line"/>
    </contour>
  </outline>
</glyph>
<glyph name="five.lf" format="2">
  <advance width="889"/>
  <outline>
    <contour>
      <point x="506.0" y="1276.0" type="line"/>
      <point x="1003.0" y="1276.0" type="line"/>
      <point x="1065.0" y="1378.0" type="line"/>
      <point x="820.0" y="1340.0" type="line"/>
      <point x="503.0" y="1340.0" type="line"/>
      <point x="254.0" y="826.0" type="line"/>
      <point x="595.0" y="750.0"/>
      <point x="724.0" y="638.0"/>
      <point x="724.0" y="460.0" type="curve" smooth="yes"/>
      <point x="724.0" y="233.0"/>
      <point x="564.0" y="21.0"/>
      <point x="271.0" y="21.0" type="curve" smooth="yes"/>
      <point x="118.0" y="21.0"/>
      <point x="90.0" y="131.0"/>
      <point x="25.0" y="131.0" type="curve" smooth="yes"/>
      <point x="-5.0" y="131.0"/>
      <point x="-25.0" y="110.0"/>
      <point x="-25.0" y="82.0" type="curve" smooth="yes"/>
      <point x="-25.0" y="31.0"/>
      <point x="59.0" y="-20.0"/>
      <point x="220.0" y="-20.0" type="curve" smooth="yes"/>
      <point x="596.0" y="-20.0"/>
      <point x="795.0" y="244.0"/>
      <point x="795.0" y="485.0" type="curve" smooth="yes"/>
      <point x="795.0" y="666.0"/>
      <point x="659.0" y="806.0"/>
      <point x="310.0" y="890.0" type="curve"/>
      <point x="299.0" y="851.0" type="line"/>
      <point x="555.0" y="1325.0" type="line"/>
    </contour>
  </outline>
</glyph>
<glyph name="four.lf" format="2">
  <advance width="1024"/>
  <outline>
    <contour>
      <point x="877.0" y="1249.0" type="line"/>
      <point x="511.0" y="51.0" type="line"/>
      <point x="317.0" y="22.0" type="line"/>
      <point x="311.0" y="0.0" type="line"/>
      <point x="737.0" y="0.0" type="line"/>
      <point x="744.0" y="22.0" type="line"/>
      <point x="581.0" y="51.0" type="line"/>
      <point x="981.0" y="1360.0" type="line"/>
      <point x="966.0" y="1360.0" type="line"/>
      <point x="32.0" y="471.0" type="line"/>
      <point x="26.0" y="450.0" type="line"/>
      <point x="963.0" y="450.0" type="line"/>
      <point x="1038.0" y="536.0" type="line"/>
      <point x="897.0" y="508.0" type="line"/>
      <point x="99.0" y="508.0" type="line"/>
      <point x="79.0" y="462.0" type="line"/>
      <point x="893.0" y="1233.0" type="line"/>
    </contour>
  </outline>
</glyph>
<glyph name="franc.lf" format="2">
  <advance width="1078"/>
  <outline>
    <contour>
      <point x="1222.0" y="1377.0" type="line"/>
      <point x="1151.0" y="1340.0" type="line"/>
      <point x="611.0" y="1340.0" type="line"/>
      <point x="598.0" y="1298.0" type="line"/>
      <point x="1181.0" y="1298.0" type="line"/>
      <point x="1138.0" y="1313.0" type="line"/>
      <point x="1177.0" y="1004.0" type="line"/>
      <point x="1196.0" y="1004.0" type="line"/>
      <point x="1231.0" y="1377.0" type="line"/>
    </contour>
    <contour>
      <point x="785.0" y="556.0" type="line"/>
      <point x="154.0" y="556.0" type="line"/>
      <point x="138.0" y="506.0" type="line"/>
      <point x="770.0" y="506.0" type="line"/>
    </contour>
    <contour>
      <point x="873.0" y="843.0" type="line"/>
      <point x="241.0" y="843.0" type="line"/>
      <point x="226.0" y="793.0" type="line"/>
      <point x="858.0" y="793.0" type="line"/>
    </contour>
    <contour>
      <point x="594.0" y="1289.0" type="line"/>
      <point x="216.0" y="51.0" type="line"/>
      <point x="35.0" y="22.0" type="line"/>
      <point x="28.0" y="0.0" type="line"/>
      <point x="442.0" y="0.0" type="line"/>
      <point x="449.0" y="22.0" type="line"/>
      <point x="286.0" y="51.0" type="line"/>
      <point x="680.0" y="1340.0" type="line"/>
      <point x="438.0" y="1340.0" type="line"/>
      <point x="431.0" y="1318.0" type="line"/>
    </contour>
  </outline>
</glyph>
<glyph name="nine.lf" format="2">
  <advance width="1001"/>
  <outline>
    <contour>
      <point x="54.0" y="-47.0" type="line"/>
      <point x="802.0" y="177.0"/>
      <point x="1010.0" y="553.0"/>
      <point x="1010.0" y="938.0" type="curve" smooth="yes"/>
      <point x="1010.0" y="1193.1043373881648"/>
      <point x="882.0021739027673" y="1360.0"/>
      <point x="651.0" y="1360.0" type="curve" smooth="yes"/>
      <point x="421.0" y="1360.0"/>
      <point x="228.0" y="1184.0"/>
      <point x="228.0" y="917.0" type="curve" smooth="yes"/>
      <point x="228.0" y="739.0"/>
      <point x="323.0" y="594.0"/>
      <point x="508.0" y="594.0" type="curve" smooth="yes"/>
      <point x="635.0" y="594.0"/>
      <point x="718.0" y="622.0"/>
      <point x="949.0" y="778.0" type="curve"/>
      <point x="942.0" y="803.0" type="line"/>
      <point x="751.0" y="681.0"/>
      <point x="662.0" y="648.0"/>
      <point x="538.0" y="649.0" type="curve" smooth="yes"/>
      <point x="383.0" y="650.0"/>
      <point x="294.0" y="774.0"/>
      <point x="294.0" y="947.0" type="curve" smooth="yes"/>
      <point x="294.0" y="1170.0"/>
      <point x="453.0" y="1325.0"/>
      <point x="650.0" y="1325.0" type="curve" smooth="yes"/>
      <point x="821.0" y="1325.0"/>
      <point x="939.0" y="1198.641176470588"/>
      <point x="939.0" y="918.0" type="curve" smooth="yes"/>
      <point x="939.0" y="657.0"/>
      <point x="806.0" y="213.0"/>
      <point x="45.0" y="-15.0" type="curve"/>
    </contour>
  </outline>
</glyph>
<glyph name="peseta.lf" format="2">
  <advance width="1534"/>
  <outline>
    <contour>
      <point x="781.0" y="129.0" type="curve" smooth="yes"/>
      <point x="1050.0" y="1007.0" type="line"/>
      <point x="1029.0" y="1007.0" type="line"/>
      <point x="959.0" y="874.0"/>
      <point x="933.0" y="860.0"/>
      <point x="869.0" y="840.0" type="curve"/>
      <point x="860.0" y="813.0" type="line"/>
      <point x="924.0" y="813.0" type="line"/>
      <point x="716.0" y="131.0" type="line" smooth="yes"/>
      <point x="680.0" y="14.0"/>
      <point x="749.0" y="-11.0"/>
      <point x="790.0" y="-11.0" type="curve" smooth="yes"/>
      <point x="832.0" y="-11.0"/>
      <point x="853.0" y="-7.0"/>
      <point x="937.0" y="34.0" type="curve"/>
      <point x="945.0" y="60.0" type="line"/>
      <point x="898.0" y="49.0"/>
      <point x="874.0" y="45.0"/>
      <point x="838.0" y="45.0" type="curve" smooth="yes"/>
      <point x="779.0" y="45.0"/>
      <point x="764.0" y="73.0"/>
    </contour>
    <contour>
      <point x="965.0" y="813.0" type="line"/>
      <point x="1158.0" y="813.0" type="line"/>
      <point x="1177.0" y="860.0" type="line"/>
      <point x="952.0" y="860.0" type="line"/>
    </contour>
    <contour>
      <point x="519.0" y="1292.0" type="line"/>
      <point x="139.0" y="48.0" type="line"/>
      <point x="4.0" y="22.0" type="line"/>
      <point x="-3.0" y="0.0" type="line"/>
      <point x="323.0" y="0.0" type="line"/>
      <point x="330.0" y="22.0" type="line"/>
      <point x="210.0" y="48.0" type="line"/>
      <point x="605.0" y="1340.0" type="line"/>
      <point x="407.0" y="1340.0" type="line"/>
      <point x="400.0" y="1318.0" type="line"/>
    </contour>
    <contour>
      <point x="1411.0" y="905.0" type="curve" smooth="yes"/>
      <point x="1256.0" y="905.0"/>
      <point x="1180.0" y="783.0"/>
      <point x="1180.0" y="625.0" type="curve" smooth="yes"/>
      <point x="1180.0" y="462.0"/>
      <point x="1305.0" y="430.0"/>
      <point x="1305.0" y="272.0" type="curve" smooth="yes"/>
      <point x="1305.0" y="112.0"/>
      <point x="1224.0" y="26.0"/>
      <point x="1113.0" y="26.0" type="curve" smooth="yes"/>
      <point x="1093.0" y="26.0"/>
      <point x="1067.0" y="29.0"/>
      <point x="1052.0" y="36.0" type="curve"/>
      <point x="1070.0" y="-1.0" type="line"/>
      <point x="1057.0" y="244.0" type="line"/>
      <point x="1034.0" y="244.0" type="line"/>
      <point x="1005.0" y="5.0" type="line"/>
      <point x="1036.0" y="-5.0"/>
      <point x="1071.0" y="-10.0"/>
      <point x="1115.0" y="-10.0" type="curve" smooth="yes"/>
      <point x="1254.0" y="-10.0"/>
      <point x="1363.0" y="116.0"/>
      <point x="1363.0" y="300.0" type="curve" smooth="yes"/>
      <point x="1363.0" y="483.0"/>
      <point x="1239.0" y="511.0"/>
      <point x="1239.0" y="659.0" type="curve" smooth="yes"/>
      <point x="1239.0" y="769.0"/>
      <point x="1286.0" y="868.0"/>
      <point x="1403.0" y="868.0" type="curve" smooth="yes"/>
      <point x="1420.0" y="868.0"/>
      <point x="1444.0" y="864.0"/>
      <point x="1456.0" y="858.0" type="curve"/>
      <point x="1445.0" y="874.0" type="line"/>
      <point x="1452.0" y="663.0" type="line"/>
      <point x="1472.0" y="663.0" type="line"/>
      <point x="1502.0" y="884.0" type="line"/>
      <point x="1480.0" y="897.0"/>
      <point x="1446.0" y="905.0"/>
    </contour>
    <contour>
      <point x="456.0" y="671.0" type="curve" smooth="yes"/>
      <point x="382.0" y="671.0" type="line"/>
      <point x="369.0" y="629.0" type="line"/>
      <point x="452.0" y="629.0" type="line" smooth="yes"/>
      <point x="739.0" y="629.0"/>
      <point x="896.0" y="843.0"/>
      <point x="896.0" y="1115.0" type="curve" smooth="yes"/>
      <point x="896.0" y="1248.0"/>
      <point x="835.0" y="1340.0"/>
      <point x="666.0" y="1340.0" type="curve" smooth="yes"/>
      <point x="593.0" y="1340.0" type="line"/>
      <point x="573.0" y="1298.0" type="line"/>
      <point x="640.0" y="1298.0" type="line" smooth="yes"/>
      <point x="768.0" y="1298.0"/>
      <point x="827.0" y="1245.0"/>
      <point x="827.0" y="1121.0" type="curve" smooth="yes"/>
      <point x="827.0" y="855.0"/>
      <point x="689.0" y="671.0"/>
    </contour>
  </outline>
</glyph>
<glyph name="seven.lf" format="2">
  <advance width="877"/>
  <outline>
    <contour>
      <point x="362.0" y="1276.0" type="line"/>
      <point x="1052.0" y="1276.0" type="line"/>
      <point x="1064.0" y="1312.0" type="line"/>
      <point x="170.0" y="0.0" type="line"/>
      <point x="265.0" y="0.0" type="line"/>
      <point x="1111.0" y="1327.0" type="line"/>
      <point x="1115.0" y="1340.0" type="line"/>
      <point x="415.0" y="1340.0" type="line"/>
      <point x="349.0" y="1359.0" type="line"/>
      <point x="339.0" y="1359.0" type="line"/>
      <point x="208.0" y="1013.0" type="line"/>
      <point x="225.0" y="1006.0" type="line"/>
      <point x="424.0" y="1292.0" type="line"/>
    </contour>
  </outline>
</glyph>
<glyph name="tildecomb.case" format="2">
  <anchor x="279" y="1340.0" name="_UCtop"/>
  <anchor x="382" y="1677" name="UCtop"/>
  <outline>
    <contour>
      <point x="614.0" y="1698.0" type="curve"/>
      <point x="584.0" y="1698.0" type="line"/>
      <point x="519.0" y="1576.0"/>
      <point x="486.0" y="1542.0"/>
      <point x="446.0" y="1542.0" type="curve" smooth="yes"/>
      <point x="380.0" y="1542.0"/>
      <point x="357.0" y="1706.0"/>
      <point x="270.0" y="1706.0" type="curve" smooth="yes"/>
      <point x="222.0" y="1706.0"/>
      <point x="172.0" y="1677.0"/>
      <point x="83.0" y="1494.0" type="curve"/>
      <point x="113.0" y="1494.0" type="line"/>
      <point x="178.0" y="1616.0"/>
      <point x="211.0" y="1650.0"/>
      <point x="251.0" y="1650.0" type="curve" smooth="yes"/>
      <point x="317.0" y="1650.0"/>
      <point x="340.0" y="1486.0"/>
      <point x="427.0" y="1486.0" type="curve" smooth="yes"/>
      <point x="475.0" y="1486.0"/>
      <point x="525.0" y="1515.0"/>
    </contour>
  </outline>
</glyph>
<glyph name="uni0302_tildecomb" format="2">
  <anchor x="130" y="852.0" name="_top"/>
  <outline>
    <contour>
      <point x="260.0" y="1157.0" type="line"/>
      <point x="208.0" y="1157.0" type="line"/>
      <point x="344.0" y="967.0" type="line"/>
      <point x="381.0" y="967.0" type="line"/>
      <point x="261.0" y="1204.0" type="line"/>
      <point x="216.0" y="1204.0" type="line"/>
      <point x="-50.0" y="967.0" type="line"/>
      <point x="0.0" y="967.0" type="line"/>
    </contour>
    <contour>
      <point x="522.0" y="1476.0" type="curve"/>
      <point x="492.0" y="1476.0" type="line"/>
      <point x="442.0" y="1372.0"/>
      <point x="410.0" y="1340.0"/>
      <point x="377.0" y="1340.0" type="curve" smooth="yes"/>
      <point x="326.0" y="1340.0"/>
      <point x="262.0" y="1482.0"/>
      <point x="198.0" y="1482.0" type="curve" smooth="yes"/>
      <point x="157.0" y="1482.0"/>
      <point x="114.0" y="1450.0"/>
      <point x="39.0" y="1275.0" type="curve"/>
      <point x="69.0" y="1275.0" type="line"/>
      <point x="119.0" y="1379.0"/>
      <point x="151.0" y="1411.0"/>
      <point x="184.0" y="1411.0" type="curve" smooth="yes"/>
      <point x="235.0" y="1411.0"/>
      <point x="299.0" y="1269.0"/>
      <point x="363.0" y="1269.0" type="curve" smooth="yes"/>
      <point x="404.0" y="1269.0"/>
      <point x="447.0" y="1301.0"/>
    </contour>
  </outline>
</glyph>
<glyph name="uni0306_acutecomb" format="2">
  <anchor x="129" y="852.0" name="_top"/>
  <outline>
    <contour>
      <point x="205.0" y="1189.0" type="line"/>
      <point x="245.0" y="1189.0" type="line"/>
      <point x="533.0" y="1456.0" type="line"/>
      <point x="539.0" y="1476.0" type="line"/>
      <point x="446.0" y="1476.0" type="line"/>
    </contour>
    <contour>
      <point x="181.0" y="1027.0" type="curve" smooth="yes"/>
      <point x="81.0" y="1027.0"/>
      <point x="42.0" y="1083.0"/>
      <point x="51.0" y="1206.0" type="curve"/>
      <point x="24.0" y="1206.0" type="line"/>
      <point x="9.0" y="1000.0"/>
      <point x="61.0" y="957.0"/>
      <point x="172.0" y="957.0" type="curve" smooth="yes"/>
      <point x="283.0" y="957.0"/>
      <point x="342.0" y="1000.0"/>
      <point x="453.0" y="1206.0" type="curve"/>
      <point x="420.0" y="1206.0" type="line"/>
      <point x="348.0" y="1073.0"/>
      <point x="280.0" y="1027.0"/>
    </contour>
  </outline>
</glyph>
<glyph name="uni0307.case" format="2">
  <anchor x="279" y="1340.0" name="_UCtop"/>
  <anchor x="382" y="1677" name="UCtop"/>
  <anchor x="358" y="1596.5" name="_mid"/>
  <outline>
    <contour>
      <point x="358.0" y="1516.0" type="curve" smooth="yes"/>
      <point x="407.0" y="1516.0"/>
      <point x="437.0" y="1555.0"/>
      <point x="437.0" y="1596.0" type="curve" smooth="yes"/>
      <point x="437.0" y="1638.0"/>
      <point x="407.0" y="1677.0"/>
      <point x="358.0" y="1677.0" type="curve" smooth="yes"/>
      <point x="309.0" y="1677.0"/>
      <point x="279.0" y="1638.0"/>
      <point x="279.0" y="1596.0" type="curve" smooth="yes"/>
      <point x="279.0" y="1555.0"/>
      <point x="309.0" y="1516.0"/>
    </contour>
  </outline>
</glyph>
<glyph name="uni0308.case" format="2">
  <guideline x="279" y="1340" angle="73" identifier="97FtxIuvLL"/>
  <anchor x="279" y="1340.0" name="_UCtop"/>
  <anchor x="382" y="1677" name="UCtop"/>
  <outline>
    <contour>
      <point x="164.0" y="1520.0" type="curve" smooth="yes"/>
      <point x="211.0" y="1520.0"/>
      <point x="239.0" y="1557.0"/>
      <point x="239.0" y="1596.0" type="curve" smooth="yes"/>
      <point x="239.0" y="1636.0"/>
      <point x="211.0" y="1673.0"/>
      <point x="164.0" y="1673.0" type="curve" smooth="yes"/>
      <point x="117.0" y="1673.0"/>
      <point x="89.0" y="1636.0"/>
      <point x="89.0" y="1596.0" type="curve" smooth="yes"/>
      <point x="89.0" y="1557.0"/>
      <point x="117.0" y="1520.0"/>
    </contour>
    <contour>
      <point x="550.0" y="1520.0" type="curve" smooth="yes"/>
      <point x="597.0" y="1520.0"/>
      <point x="625.0" y="1557.0"/>
      <point x="625.0" y="1596.0" type="curve" smooth="yes"/>
      <point x="625.0" y="1636.0"/>
      <point x="597.0" y="1673.0"/>
      <point x="550.0" y="1673.0" type="curve" smooth="yes"/>
      <point x="503.0" y="1673.0"/>
      <point x="475.0" y="1636.0"/>
      <point x="475.0" y="1596.0" type="curve" smooth="yes"/>
      <point x="475.0" y="1557.0"/>
      <point x="503.0" y="1520.0"/>
    </contour>
  </outline>
</glyph>
<glyph name="uni030A.case" format="2">
  <anchor x="279" y="1340.0" name="_UCtop"/>
  <anchor x="394" y="1716" name="UCtop"/>
  <outline>
    <contour>
      <point x="389.0" y="1771.0" type="curve" smooth="yes"/>
      <point x="270.0" y="1771.0"/>
      <point x="186.0" y="1680.0"/>
      <point x="186.0" y="1562.0" type="curve" smooth="yes"/>
      <point x="186.0" y="1471.0"/>
      <point x="245.0" y="1421.0"/>
      <point x="327.0" y="1421.0" type="curve" smooth="yes"/>
      <point x="446.0" y="1421.0"/>
      <point x="530.0" y="1512.0"/>
      <point x="530.0" y="1630.0" type="curve" smooth="yes"/>
      <point x="530.0" y="1721.0"/>
      <point x="471.0" y="1771.0"/>
    </contour>
    <contour>
      <point x="333.0" y="1460.0" type="curve" smooth="yes"/>
      <point x="268.0" y="1460.0"/>
      <point x="228.0" y="1497.0"/>
      <point x="228.0" y="1568.0" type="curve" smooth="yes"/>
      <point x="228.0" y="1648.0"/>
      <point x="283.0" y="1732.0"/>
      <point x="383.0" y="1732.0" type="curve" smooth="yes"/>
      <point x="448.0" y="1732.0"/>
      <point x="488.0" y="1695.0"/>
      <point x="488.0" y="1624.0" type="curve" smooth="yes"/>
      <point x="488.0" y="1544.0"/>
      <point x="433.0" y="1460.0"/>
    </contour>
  </outline>
</glyph>
<glyph name="uni030B.case" format="2">
  <anchor x="279" y="1340.0" name="_UCtop"/>
  <anchor x="394" y="1716" name="UCtop"/>
  <outline>
    <contour>
      <point x="395.0" y="1476.0" type="line"/>
      <point x="437.0" y="1476.0" type="line"/>
      <point x="812.0" y="1702.0" type="line"/>
      <point x="816.0" y="1716.0" type="line"/>
      <point x="693.0" y="1716.0" type="line"/>
    </contour>
    <contour>
      <point x="168.0" y="1476.0" type="line"/>
      <point x="205.0" y="1476.0" type="line"/>
      <point x="490.0" y="1702.0" type="line"/>
      <point x="494.0" y="1716.0" type="line"/>
      <point x="386.0" y="1716.0" type="line"/>
    </contour>
  </outline>
</glyph>
<glyph name="uni0312.case" format="2">
  <anchor x="279" y="1340.0" name="_UCtop"/>
  <anchor x="394" y="1716" name="UCtop"/>
  <outline>
    <contour>
      <point x="388.0" y="1468.0"/>
      <point x="424.0" y="1506.0"/>
      <point x="424.0" y="1550.0" type="curve" smooth="yes"/>
      <point x="424.0" y="1562.0"/>
      <point x="332.0" y="1563.0"/>
      <point x="332.0" y="1607.0" type="curve" smooth="yes"/>
      <point x="332.0" y="1649.0"/>
      <point x="378.0" y="1698.0"/>
      <point x="518.0" y="1699.0" type="curve"/>
      <point x="527.0" y="1727.0" type="line"/>
      <point x="323.0" y="1722.0"/>
      <point x="262.0" y="1628.0"/>
      <point x="262.0" y="1539.0" type="curve" smooth="yes"/>
      <point x="262.0" y="1491.0"/>
      <point x="289.0" y="1468.0"/>
      <point x="331.0" y="1468.0" type="curve" smooth="yes"/>
    </contour>
  </outline>
</glyph>
<glyph name="uni20B1.lf" format="2">
  <advance width="1252"/>
  <outline>
    <contour>
      <point x="1265.0" y="811.0" type="line"/>
      <point x="237.0" y="811.0" type="line"/>
      <point x="221.0" y="761.0" type="line"/>
      <point x="1250.0" y="761.0" type="line"/>
    </contour>
    <contour>
      <point x="1353.0" y="1098.0" type="line"/>
      <point x="324.0" y="1098.0" type="line"/>
      <point x="309.0" y="1048.0" type="line"/>
      <point x="1338.0" y="1048.0" type="line"/>
    </contour>
    <contour>
      <point x="584.0" y="1289.0" type="line"/>
      <point x="206.0" y="53.0" type="line"/>
      <point x="24.0" y="22.0" type="line"/>
      <point x="17.0" y="0.0" type="line"/>
      <point x="432.0" y="0.0" type="line"/>
      <point x="438.0" y="22.0" type="line"/>
      <point x="275.0" y="51.0" type="line"/>
      <point x="669.0" y="1340.0" type="line"/>
      <point x="427.0" y="1340.0" type="line"/>
      <point x="421.0" y="1318.0" type="line"/>
    </contour>
    <contour>
      <point x="609.0" y="576.0" type="curve" smooth="yes"/>
      <point x="406.0" y="576.0" type="line"/>
      <point x="390.0" y="533.0" type="line"/>
      <point x="610.0" y="533.0" type="line" smooth="yes"/>
      <point x="983.0" y="533.0"/>
      <point x="1150.0" y="785.0"/>
      <point x="1150.0" y="1057.0" type="curve" smooth="yes"/>
      <point x="1150.0" y="1223.0"/>
      <point x="1065.0" y="1340.0"/>
      <point x="825.0" y="1340.0" type="curve" smooth="yes"/>
      <point x="645.0" y="1340.0" type="line"/>
      <point x="626.0" y="1297.0" type="line"/>
      <point x="785.0" y="1297.0" type="line" smooth="yes"/>
      <point x="1005.0" y="1297.0"/>
      <point x="1081.0" y="1210.0"/>
      <point x="1081.0" y="1060.0" type="curve" smooth="yes"/>
      <point x="1081.0" y="787.0"/>
      <point x="937.0" y="576.0"/>
    </contour>
  </outline>
</glyph>
<glyph name="uni20B2.lf" format="2">
  <advance width="1096"/>
  <outline>
    <contour>
      <point x="368.0" y="-195.0" type="line"/>
      <point x="418.0" y="-195.0" type="line"/>
      <point x="947.0" y="1535.0" type="line"/>
      <point x="897.0" y="1535.0" type="line"/>
    </contour>
    <contour>
      <point x="219.0" y="389.0" type="curve" smooth="yes"/>
      <point x="219.0" y="791.0"/>
      <point x="475.0" y="1325.0"/>
      <point x="865.0" y="1325.0" type="curve" smooth="yes"/>
      <point x="1048.0" y="1325.0"/>
      <point x="1064.0" y="1187.0"/>
      <point x="1128.0" y="1187.0" type="curve" smooth="yes"/>
      <point x="1160.0" y="1187.0"/>
      <point x="1181.0" y="1212.0"/>
      <point x="1181.0" y="1238.0" type="curve" smooth="yes"/>
      <point x="1181.0" y="1296.0"/>
      <point x="1091.0" y="1360.0"/>
      <point x="899.0" y="1360.0" type="curve" smooth="yes"/>
      <point x="439.0" y="1360.0"/>
      <point x="152.0" y="822.0"/>
      <point x="152.0" y="373.0" type="curve" smooth="yes"/>
      <point x="152.0" y="133.0"/>
      <point x="280.0" y="-19.0"/>
      <point x="516.0" y="-19.0" type="curve" smooth="yes"/>
      <point x="622.0" y="-19.0"/>
      <point x="752.0" y="14.0"/>
      <point x="839.0" y="54.0" type="curve"/>
      <point x="841.0" y="59.0" type="line"/>
      <point x="800.0" y="81.0" type="line"/>
      <point x="943.0" y="551.0" type="line"/>
      <point x="1061.0" y="576.0" type="line"/>
      <point x="1068.0" y="599.0" type="line"/>
      <point x="725.0" y="599.0" type="line"/>
      <point x="718.0" y="576.0" type="line"/>
      <point x="873.0" y="551.0" type="line"/>
      <point x="711.0" y="23.0" type="line"/>
      <point x="752.0" y="80.0" type="line"/>
      <point x="661.0" y="30.0"/>
      <point x="585.0" y="16.0"/>
      <point x="518.0" y="16.0" type="curve" smooth="yes"/>
      <point x="329.0" y="16.0"/>
      <point x="219.0" y="151.0"/>
    </contour>
  </outline>
</glyph>
<glyph name="uni20BC.lf" format="2">
  <advance width="968"/>
  <outline>
    <contour>
      <point x="684.0" y="1101.0" type="curve" smooth="yes"/>
      <point x="865.0" y="1101.0"/>
      <point x="869.0" y="804.0"/>
      <point x="666.0" y="0.0" type="curve"/>
      <point x="748.0" y="0.0" type="line"/>
      <point x="942.0" y="899.0"/>
      <point x="890.0" y="1139.0"/>
      <point x="690.0" y="1139.0" type="curve" smooth="yes"/>
      <point x="496.0" y="1139.0"/>
      <point x="285.0" y="900.0"/>
      <point x="-29.0" y="0.0" type="curve"/>
      <point x="48.0" y="0.0" type="line"/>
      <point x="300.0" y="804.0"/>
      <point x="505.0" y="1101.0"/>
    </contour>
    <contour>
      <point x="334.0" y="0.0" type="line"/>
      <point x="383.0" y="0.0" type="line"/>
      <point x="793.0" y="1340.0" type="line"/>
      <point x="744.0" y="1340.0" type="line"/>
    </contour>
  </outline>
</glyph>
